<svg xmlns="http://www.w3.org/2000/svg" width="149" height="63" viewBox="0 0 149 63">
    <g fill="#29458C" fill-rule="evenodd">
        <path d="M4.26 29.053c-.562 0-.844-.277-.844-.833V13.186H.806c-.537 0-.806-.29-.806-.87v-1.061c0-.354.064-.6.192-.739.128-.138.332-.22.614-.246l2.61-.379V7.316C3.416 2.772 5.58.5 9.904.5c1.075 0 2.098.127 3.07.379.385.1.64.233.768.397.128.165.192.436.192.814v1.402c0 .53-.217.795-.652.795-.256 0-.576-.044-.96-.133-.384-.088-.883-.132-1.497-.132-1.024 0-1.76.215-2.207.644-.448.43-.672 1.123-.672 2.082v3.03h4.913c.563 0 .845.265.845.795v1.78c0 .556-.282.833-.845.833H7.946V28.22c0 .556-.282.833-.844.833H4.26M22.187 29.621c-1.817 0-3.219-.499-4.203-1.496-.986-.997-1.478-2.43-1.478-4.298V10.611c0-.555.281-.833.844-.833h2.84c.563 0 .845.278.845.833v11.89c0 1.238.256 2.147.768 2.727.512.581 1.33.871 2.457.871 1.586 0 3.186-.517 4.798-1.552V10.61c0-.555.281-.833.845-.833h2.84c.563 0 .845.278.845.833V28.22c0 .556-.282.833-.845.833H30.71c-.359 0-.608-.05-.749-.151-.14-.101-.237-.29-.288-.568l-.307-1.402c-2.405 1.793-4.798 2.689-7.178 2.689M45.488 29.318c-2.022 0-3.52-.467-4.492-1.401-.972-.934-1.458-2.36-1.458-4.28v-10.45H37.08c-.563 0-.845-.278-.845-.834v-1.098c0-.328.064-.562.192-.7.128-.14.333-.234.615-.285l2.648-.379.576-4.582c.025-.303.115-.517.269-.643.153-.126.384-.19.69-.19h1.997c.563 0 .844.278.844.833v4.469h4.722c.563 0 .844.278.844.833v1.742c0 .556-.281.833-.844.833h-4.722v10.225c0 .858.211 1.47.634 1.836.422.367 1.132.55 2.13.55.589 0 1.062-.038 1.42-.114.359-.076.653-.114.883-.114.435 0 .653.24.653.72v1.363c0 .404-.071.688-.211.852-.141.164-.403.297-.787.398a13.151 13.151 0 0 1-3.301.416M58.616 29.621c-1.818 0-3.22-.499-4.204-1.496-.985-.997-1.478-2.43-1.478-4.298V10.611c0-.555.282-.833.845-.833h2.84c.563 0 .845.278.845.833v11.89c0 1.238.255 2.147.768 2.727.511.581 1.33.871 2.456.871 1.587 0 3.186-.517 4.799-1.552V10.61c0-.555.281-.833.844-.833h2.84c.563 0 .845.278.845.833V28.22c0 .556-.282.833-.844.833h-2.035c-.358 0-.608-.05-.748-.151-.141-.101-.237-.29-.288-.568l-.307-1.402c-2.406 1.793-4.799 2.689-7.178 2.689M75.928 29.053c-.563 0-.845-.277-.845-.833V10.611c0-.555.282-.833.845-.833h2.034c.358 0 .608.05.749.151.14.102.236.29.288.568l.46 2.159c1.024-1.11 1.983-1.894 2.88-2.348a6.354 6.354 0 0 1 2.917-.682h.153c.333 0 .608.032.826.095.217.063.37.17.46.322.09.151.134.43.134.833v2.045c0 .53-.23.795-.69.795-.154 0-.365-.012-.634-.038a9.398 9.398 0 0 0-.864-.038c-1.894 0-3.57.48-5.028 1.44v13.14c0 .556-.282.833-.844.833h-2.841M101.492 17.503V17.2c0-1.54-.339-2.713-1.017-3.522-.678-.807-1.67-1.211-2.975-1.211-1.382 0-2.508.454-3.378 1.363-.87.909-1.369 2.133-1.497 3.673h8.867zm-3.224 12.118c-3.224 0-5.668-.858-7.332-2.575-1.664-1.716-2.495-4.216-2.495-7.498 0-3.257.812-5.794 2.438-7.612 1.625-1.817 3.896-2.726 6.813-2.726 2.508 0 4.434.676 5.778 2.026 1.343 1.35 2.015 3.263 2.015 5.737 0 .858-.064 1.755-.192 2.689-.052.328-.148.549-.288.662-.14.114-.326.17-.557.17H92.625c.077 1.92.62 3.327 1.632 4.223 1.01.897 2.565 1.344 4.664 1.344 1.535 0 3.147-.24 4.836-.719l.461-.114c.102-.025.192-.038.269-.038.384 0 .576.253.576.758v1.363c0 .379-.058.65-.173.814-.115.165-.378.322-.787.474-1.715.681-3.66 1.022-5.835 1.022zM14.165 42.648v-.303c0-1.54-.34-2.714-1.018-3.522-.678-.808-1.67-1.212-2.975-1.212-1.381 0-2.508.455-3.378 1.364-.87.909-1.369 2.133-1.497 3.673h8.868zM10.94 54.766c-3.224 0-5.668-.858-7.332-2.575-1.663-1.717-2.495-4.216-2.495-7.498 0-3.257.812-5.794 2.438-7.612 1.625-1.817 3.896-2.726 6.813-2.726 2.508 0 4.434.676 5.778 2.026 1.343 1.35 2.015 3.263 2.015 5.737 0 .858-.064 1.755-.192 2.688-.052.329-.148.55-.288.663-.141.114-.326.17-.557.17H5.297c.077 1.92.62 3.327 1.632 4.223 1.01.897 2.565 1.344 4.664 1.344 1.535 0 3.147-.24 4.836-.72l.461-.113c.102-.025.192-.038.269-.038.384 0 .576.253.576.758v1.363c0 .379-.058.65-.173.814-.115.165-.378.322-.787.473-1.715.682-3.66 1.023-5.835 1.023zM22.648 54.198c-.564 0-.845-.277-.845-.833V35.756c0-.555.281-.833.845-.833h2.034c.358 0 .608.05.749.151.14.101.236.29.288.568l.307 1.402c2.405-1.793 4.913-2.69 7.523-2.69 1.868 0 3.289.487 4.261 1.459.973.972 1.46 2.38 1.46 4.222v13.33c0 .556-.283.833-.845.833h-2.841c-.563 0-.845-.277-.845-.833V41.436c0-1.236-.256-2.14-.768-2.707-.512-.568-1.33-.852-2.456-.852-1.69 0-3.416.555-5.182 1.666v13.822c0 .556-.282.833-.845.833h-2.84M52.09 50.373c1.51 0 2.942-.492 4.3-1.477v-9.694c-1.332-.91-2.752-1.363-4.262-1.363-1.561 0-2.72.505-3.474 1.514-.755 1.01-1.132 2.563-1.132 4.658 0 4.241 1.522 6.362 4.568 6.362zm-.922 12.08c-1.945 0-3.851-.366-5.72-1.098-.383-.151-.64-.31-.767-.473-.128-.165-.192-.423-.192-.776v-1.553c0-.48.179-.72.538-.72.101 0 .21.02.326.057.115.038.351.107.71.208 1.637.53 3.25.796 4.837.796 1.92 0 3.314-.436 4.184-1.307.87-.87 1.305-2.29 1.305-4.26V51.7c-1.664 1.414-3.545 2.12-5.643 2.12-2.38 0-4.28-.877-5.7-2.631-1.42-1.755-2.13-4.096-2.13-7.025 0-1.994.338-3.736 1.017-5.226.677-1.49 1.618-2.625 2.821-3.408 1.203-.783 2.584-1.174 4.146-1.174 2.226 0 4.158.77 5.796 2.31l.23-.985c.103-.505.435-.757.998-.757h2.073c.563 0 .845.278.845.833v17.117c0 3.054-.839 5.415-2.514 7.081-1.677 1.666-4.063 2.5-7.16 2.5zM66.6 54.198c-.564 0-.845-.277-.845-.833V35.756c0-.555.281-.833.845-.833h2.84c.563 0 .845.278.845.833v17.609c0 .556-.282.833-.845.833H66.6M76.042 54.198c-.563 0-.844-.277-.844-.833V35.756c0-.555.281-.833.844-.833h2.035c.358 0 .607.05.748.151.14.101.237.29.288.568l.307 1.402c2.405-1.793 4.914-2.69 7.524-2.69 1.868 0 3.288.487 4.26 1.459.973.972 1.46 2.38 1.46 4.222v13.33c0 .556-.282.833-.845.833h-2.84c-.564 0-.845-.277-.845-.833V41.436c0-1.236-.256-2.14-.768-2.707-.512-.568-1.33-.852-2.456-.852-1.69 0-3.417.555-5.183 1.666v13.822c0 .556-.281.833-.844.833h-2.84M109.361 42.648v-.303c0-1.54-.34-2.714-1.017-3.522-.678-.808-1.67-1.212-2.975-1.212-1.382 0-2.508.455-3.378 1.364-.87.909-1.37 2.133-1.497 3.673h8.867zm-3.224 12.118c-3.224 0-5.669-.858-7.332-2.575-1.664-1.717-2.495-4.216-2.495-7.498 0-3.257.812-5.794 2.438-7.612 1.624-1.817 3.896-2.726 6.813-2.726 2.508 0 4.434.676 5.777 2.026 1.344 1.35 2.015 3.263 2.015 5.737 0 .858-.064 1.755-.191 2.688-.052.329-.148.55-.288.663-.141.114-.327.17-.557.17h-11.823c.077 1.92.62 3.327 1.632 4.223 1.01.897 2.565 1.344 4.663 1.344 1.536 0 3.148-.24 4.837-.72l.461-.113c.102-.025.192-.038.268-.038.384 0 .576.253.576.758v1.363c0 .379-.057.65-.172.814-.116.165-.378.322-.787.473-1.715.682-3.66 1.023-5.835 1.023zM129.053 42.648v-.303c0-1.54-.34-2.714-1.017-3.522-.678-.808-1.67-1.212-2.975-1.212-1.382 0-2.508.455-3.378 1.364-.87.909-1.37 2.133-1.497 3.673h8.867zm-3.224 12.118c-3.225 0-5.669-.858-7.332-2.575-1.664-1.717-2.495-4.216-2.495-7.498 0-3.257.812-5.794 2.438-7.612 1.624-1.817 3.896-2.726 6.813-2.726 2.508 0 4.434.676 5.777 2.026 1.344 1.35 2.015 3.263 2.015 5.737 0 .858-.064 1.755-.191 2.688-.052.329-.148.55-.288.663-.141.114-.327.17-.557.17h-11.823c.077 1.92.62 3.327 1.632 4.223 1.01.897 2.565 1.344 4.663 1.344 1.536 0 3.148-.24 4.837-.72l.46-.113c.103-.025.192-.038.27-.038.383 0 .575.253.575.758v1.363c0 .379-.057.65-.173.814-.115.165-.377.322-.786.473-1.715.682-3.66 1.023-5.835 1.023zM137.536 54.198c-.563 0-.844-.277-.844-.833V35.756c0-.555.281-.833.844-.833h2.035c.358 0 .607.05.748.151.14.101.236.29.288.568l.46 2.159c1.024-1.111 1.984-1.894 2.88-2.348a6.353 6.353 0 0 1 2.917-.682h.154c.332 0 .607.032.825.095.217.063.37.17.46.322.09.151.135.43.135.833v2.045c0 .53-.23.795-.691.795-.154 0-.365-.012-.633-.038a9.374 9.374 0 0 0-.864-.038c-1.894 0-3.57.48-5.029 1.44v13.14c0 .556-.282.833-.844.833h-2.84M123.455 22.381c-.545 0-1.09-.21-1.497-.629l-6.478-6.64a2.03 2.03 0 0 1 .056-2.9 2.098 2.098 0 0 1 2.939.056l6.477 6.641a2.03 2.03 0 0 1-.056 2.9 2.087 2.087 0 0 1-1.44.572"/>
        <path d="M116.85 28.921c-.545 0-1.09-.21-1.497-.628a2.031 2.031 0 0 1 .056-2.9l6.732-6.39a2.099 2.099 0 0 1 2.939.056c.795.816.77 2.114-.057 2.899l-6.732 6.39a2.086 2.086 0 0 1-1.44.573M136.531 22.381c-.545 0-1.09-.21-1.498-.629l-6.478-6.64a2.03 2.03 0 0 1 .057-2.9 2.099 2.099 0 0 1 2.938.056l6.478 6.641a2.03 2.03 0 0 1-.056 2.9 2.087 2.087 0 0 1-1.44.572"/>
        <path d="M129.926 28.921c-.545 0-1.09-.21-1.498-.628a2.03 2.03 0 0 1 .057-2.9l6.732-6.39a2.099 2.099 0 0 1 2.938.056 2.03 2.03 0 0 1-.056 2.899l-6.732 6.39a2.087 2.087 0 0 1-1.44.573"/>
    </g>
</svg>
