<svg xmlns="http://www.w3.org/2000/svg" width="99" height="30" viewBox="0 0 99 30">
    <g fill="none" fill-rule="evenodd">
        <path d="M13.984 19H61.93v11H13.984z"/>
        <path fill="#29458C" d="M61.507 23.376C55.75 27.7 47.406 30 40.22 30c-10.071 0-19.14-3.79-26.003-10.099-.539-.495-.058-1.172.59-.788 7.404 4.386 16.56 7.028 26.018 7.028 6.38 0 13.392-1.348 19.845-4.134.973-.42 1.789.652.837 1.369"/>
        <path fill="#29458C" d="M64.231 20.677c-.746-.97-4.931-.46-6.812-.23-.57.069-.658-.437-.144-.804 3.339-2.384 8.81-1.695 9.446-.897.64.805-.168 6.38-3.297 9.042-.482.409-.94.19-.726-.35.704-1.787 2.28-5.79 1.533-6.76M57.505 3.74V1.554a.546.546 0 0 1 .564-.553L68.047 1c.319 0 .575.228.575.551v1.875c-.003.315-.273.724-.751 1.376l-5.169 7.245c1.919-.044 3.948.239 5.691 1.2.393.217.499.538.53.854v2.332c0 .32-.359.693-.735.5-3.071-1.58-7.146-1.752-10.542.019-.347.181-.71-.186-.71-.507v-2.217c0-.355.007-.962.371-1.502l5.988-8.435h-5.214c-.318 0-.574-.223-.576-.551M76.885 3.307c-2.274 0-2.417 3.17-2.417 5.147 0 1.977-.029 6.205 2.389 6.205 2.388 0 2.503-3.41 2.503-5.488 0-1.364-.058-3-.461-4.296-.345-1.125-1.036-1.568-2.014-1.568zM76.857 0c4.575 0 7.049 4.023 7.049 9.136 0 4.943-2.733 8.864-7.05 8.864-4.488 0-6.935-4.024-6.935-9.034C69.921 3.92 72.396 0 76.857 0zM52.351 17.736c-.207.187-.585.193-.74.073-1.071-.832-1.797-2.098-1.797-2.098-1.72 1.76-2.94 2.289-5.167 2.289-2.64 0-4.692-1.637-4.692-4.909 0-2.557 1.378-4.295 3.343-5.147 1.7-.75 4.076-.887 5.893-1.092 0 0 .152-1.973-.38-2.693-.413-.558-1.115-.818-1.76-.818-1.163-.005-2.286.63-2.509 1.853-.064.35-.32.643-.591.614l-3.002-.327a.555.555 0 0 1-.468-.659C41.18 1.12 44.507 0 47.491 0c1.524 0 3.518.409 4.72 1.568C53.737 3 53.59 4.91 53.59 6.99v4.905c0 1.477.61 2.124 1.182 2.92.2.287.246.627-.01.836-.64.54-2.41 2.085-2.41 2.085zm-3.16-7.679c0 1.228.03 2.25-.586 3.341-.498.886-1.29 1.432-2.17 1.432-1.202 0-1.906-.921-1.906-2.285 0-2.682 2.395-3.17 4.662-3.17v.682zM12.396 17.736c-.207.187-.586.193-.74.073-1.071-.832-1.797-2.098-1.797-2.098C8.138 17.47 6.92 18 4.691 18 2.052 18 0 16.363 0 13.091c0-2.557 1.378-4.295 3.343-5.147 1.7-.75 4.076-.887 5.893-1.092 0 0 .151-1.973-.38-2.693-.414-.558-1.115-.818-1.76-.818-1.163-.005-2.286.63-2.509 1.853-.064.35-.32.643-.591.614L.994 5.48a.555.555 0 0 1-.468-.659C1.224 1.12 4.552 0 7.536 0c1.524 0 3.518.409 4.72 1.568C13.78 3 13.634 4.91 13.634 6.99v4.905c0 1.477.61 2.124 1.183 2.92.2.287.246.627-.01.836-.64.54-2.411 2.085-2.411 2.085zm-3.16-7.679c0 1.228.03 2.25-.586 3.341-.498.886-1.29 1.432-2.17 1.432-1.202 0-1.906-.921-1.906-2.285 0-2.682 2.395-3.17 4.662-3.17v.682zM21.254 8.172c0-1.805-.088-4.299 2.151-4.299 2.21 0 1.918 2.56 1.918 4.299l.004 8.268c0 .3.246.54.559.56h3.11c.332 0 .6-.25.6-.56V8.171c0-.887-.028-2.199.291-2.987.32-.788 1.105-1.28 1.861-1.28.901 0 1.599.296 1.831 1.346.146.624.088 2.265.088 2.92v8.27c0 .298.246.54.56.559h3.11c.332 0 .6-.25.6-.56l.003-9.843c0-1.674.203-3.577-.785-4.89C36.283.525 34.859 0 33.55 0c-1.83 0-3.546.92-4.302 2.888C28.376.92 27.155 0 25.208 0c-1.92 0-3.344.92-4.099 2.888h-.059V.897a.575.575 0 0 0-.582-.568h-2.905a.575.575 0 0 0-.582.568v15.535c0 .314.26.568.582.568h3.11a.575.575 0 0 0 .58-.568v-8.26M90.338 16.432a.58.58 0 0 1-.59.568H86.59a.58.58 0 0 1-.591-.568V.897a.58.58 0 0 1 .59-.568h2.92c.342 0 .59.264.59.443V3.15h.061C91.047 1.017 92.286 0 94.47 0c1.417 0 2.804.492 3.69 1.838.825 1.247.825 3.347.825 4.857v9.814c-.035.277-.293.491-.606.491H95.21c-.293-.018-.529-.225-.563-.49l.006-9.424c0-3.153-1.257-3.246-1.983-3.246-.843 0-1.522.633-1.819 1.224-.442.952-.513 1.926-.513 2.977v8.391"/>
    </g>
</svg>
