<?xml version="1.0" encoding="utf-8"?>
<!-- Generator: Adobe Illustrator 24.3.0, SVG Export Plug-In . SVG Version: 6.00 Build 0)  -->
<svg version="1.1" id="Layer_1" xmlns="http://www.w3.org/2000/svg" xmlns:xlink="http://www.w3.org/1999/xlink" x="0px" y="0px"
	 viewBox="0 0 1920 1280" style="enable-background:new 0 0 1920 1280;" xml:space="preserve">
<style type="text/css">
	.st0{fill:url(#SVGID_1_);}
	.st1{clip-path:url(#SVGID_3_);}
	.st2{clip-path:url(#SVGID_5_);}
	.st3{clip-path:url(#SVGID_7_);}
	.st4{clip-path:url(#SVGID_9_);}
	.st5{clip-path:url(#SVGID_11_);}
	.st6{clip-path:url(#SVGID_13_);}
	.st7{clip-path:url(#SVGID_15_);}
	.st8{clip-path:url(#SVGID_17_);}
	.st9{clip-path:url(#SVGID_19_);}
	.st10{clip-path:url(#SVGID_21_);}
	.st11{clip-path:url(#SVGID_23_);}
	.st12{clip-path:url(#SVGID_25_);}
	.st13{clip-path:url(#SVGID_27_);}
	.st14{clip-path:url(#SVGID_29_);}
	.st15{clip-path:url(#SVGID_31_);}
	.st16{clip-path:url(#SVGID_33_);}
	.st17{clip-path:url(#SVGID_35_);}
	.st18{clip-path:url(#SVGID_37_);}
	.st19{clip-path:url(#SVGID_39_);}
	.st20{clip-path:url(#SVGID_41_);}
	.st21{clip-path:url(#SVGID_43_);}
	.st22{clip-path:url(#SVGID_45_);}
	.st23{clip-path:url(#SVGID_47_);}
	.st24{clip-path:url(#SVGID_49_);}
	.st25{clip-path:url(#SVGID_51_);}
	.st26{clip-path:url(#SVGID_53_);}
	.st27{clip-path:url(#SVGID_55_);}
	.st28{clip-path:url(#SVGID_57_);}
	.st29{clip-path:url(#SVGID_59_);}
	.st30{clip-path:url(#SVGID_61_);}
	.st31{clip-path:url(#SVGID_63_);}
	.st32{clip-path:url(#SVGID_65_);}
	.st33{fill:#C9C3B9;}
	.st34{clip-path:url(#SVGID_67_);}
	.st35{clip-path:url(#SVGID_69_);}
	.st36{fill:#F9F5EE;}
	.st37{fill:#E3DFDA;}
	.st38{fill:#004867;}
	.st39{fill:#E4E4E2;}
	.st40{fill:#6CB9DD;}
</style>
<linearGradient id="SVGID_1_" gradientUnits="userSpaceOnUse" x1="960" y1="1280" x2="960" y2="0">
	<stop  offset="0" style="stop-color:#F5F5F7"/>
	<stop  offset="0.4077" style="stop-color:#F3F3F5"/>
	<stop  offset="0.6313" style="stop-color:#EDECED"/>
	<stop  offset="0.8102" style="stop-color:#E2E0DF"/>
	<stop  offset="0.9647" style="stop-color:#D3CFCC"/>
	<stop  offset="1" style="stop-color:#CFCAC6"/>
</linearGradient>
<rect class="st0" width="1920" height="1280"/>
<g>
	<defs>
		<polygon id="SVGID_2_" points="846.8,288.1 568.3,288.1 305,136 583.5,136 846.8,288.1 		"/>
	</defs>
	<clipPath id="SVGID_3_">
		<use xlink:href="#SVGID_2_"  style="overflow:visible;"/>
	</clipPath>
	<g class="st1">
		<g>
			<defs>
				<rect id="SVGID_4_" x="305" y="136" width="541.9" height="152"/>
			</defs>
			<clipPath id="SVGID_5_">
				<use xlink:href="#SVGID_4_"  style="overflow:visible;"/>
			</clipPath>
			<g class="st2">
				
					<image style="overflow:visible;enable-background:new    ;" width="508" height="145" xlink:href="1577E119D5D0EE3.png"  transform="matrix(-1.0837 0 0 -1.0837 849.9407 290.9717)">
				</image>
			</g>
		</g>
	</g>
</g>
<g>
	<defs>
		<polygon id="SVGID_6_" points="583.5,1048.3 305,1048.3 568.3,896.2 846.8,896.2 583.5,1048.3 		"/>
	</defs>
	<clipPath id="SVGID_7_">
		<use xlink:href="#SVGID_6_"  style="overflow:visible;"/>
	</clipPath>
	<g class="st3">
		<g>
			<defs>
				<rect id="SVGID_8_" x="305" y="896.2" width="541.9" height="152"/>
			</defs>
			<clipPath id="SVGID_9_">
				<use xlink:href="#SVGID_8_"  style="overflow:visible;"/>
			</clipPath>
			<g class="st4">
				
					<image style="overflow:visible;enable-background:new    ;" width="508" height="144" xlink:href="1577E119D5D0EE1.png"  transform="matrix(-1.0837 0 0 -1.0837 849.9407 1050.9546)">
				</image>
			</g>
		</g>
	</g>
</g>
<g>
	<defs>
		<polygon id="SVGID_10_" points="846.8,1200.3 568.3,1200.3 831.6,1048.3 1110.2,1048.3 846.8,1200.3 		"/>
	</defs>
	<clipPath id="SVGID_11_">
		<use xlink:href="#SVGID_10_"  style="overflow:visible;"/>
	</clipPath>
	<g class="st5">
		<g>
			<defs>
				<rect id="SVGID_12_" x="568.3" y="1048.3" width="541.9" height="152"/>
			</defs>
			<clipPath id="SVGID_13_">
				<use xlink:href="#SVGID_12_"  style="overflow:visible;"/>
			</clipPath>
			<g class="st6">
				
					<image style="overflow:visible;enable-background:new    ;" width="508" height="144" xlink:href="1577E119D5D0EEE.png"  transform="matrix(-1.0837 0 0 -1.0837 1112.4061 1202.5193)">
				</image>
			</g>
		</g>
	</g>
</g>
<g>
	<defs>
		<polygon id="SVGID_14_" points="583.5,744.2 305,744.2 568.3,592.1 846.8,592.1 583.5,744.2 		"/>
	</defs>
	<clipPath id="SVGID_15_">
		<use xlink:href="#SVGID_14_"  style="overflow:visible;"/>
	</clipPath>
	<g class="st7">
		<g>
			<defs>
				<rect id="SVGID_16_" x="305" y="592.1" width="541.9" height="152"/>
			</defs>
			<clipPath id="SVGID_17_">
				<use xlink:href="#SVGID_16_"  style="overflow:visible;"/>
			</clipPath>
			<g class="st8">
				
					<image style="overflow:visible;enable-background:new    ;" width="508" height="144" xlink:href="1577E119D5D0EE0.png"  transform="matrix(-1.0837 0 0 -1.0837 849.9407 746.7413)">
				</image>
			</g>
		</g>
	</g>
</g>
<g>
	<defs>
		<polygon id="SVGID_18_" points="846.8,896.2 568.3,896.2 305,744.2 583.5,744.2 846.8,896.2 		"/>
	</defs>
	<clipPath id="SVGID_19_">
		<use xlink:href="#SVGID_18_"  style="overflow:visible;"/>
	</clipPath>
	<g class="st9">
		<g>
			<defs>
				<rect id="SVGID_20_" x="305" y="744.2" width="541.9" height="152"/>
			</defs>
			<clipPath id="SVGID_21_">
				<use xlink:href="#SVGID_20_"  style="overflow:visible;"/>
			</clipPath>
			<g class="st10">
				
					<image style="overflow:visible;enable-background:new    ;" width="508" height="145" xlink:href="1577E119D5D0EFA.png"  transform="matrix(-1.0837 0 0 -1.0837 849.9407 899.3898)">
				</image>
			</g>
		</g>
	</g>
</g>
<g>
	<defs>
		<polygon id="SVGID_22_" points="583.5,440.1 305,440.1 568.3,288.1 846.8,288.1 583.5,440.1 		"/>
	</defs>
	<clipPath id="SVGID_23_">
		<use xlink:href="#SVGID_22_"  style="overflow:visible;"/>
	</clipPath>
	<g class="st11">
		<g>
			<defs>
				<rect id="SVGID_24_" x="305" y="288.1" width="541.9" height="152"/>
			</defs>
			<clipPath id="SVGID_25_">
				<use xlink:href="#SVGID_24_"  style="overflow:visible;"/>
			</clipPath>
			<g class="st12">
				
					<image style="overflow:visible;enable-background:new    ;" width="508" height="144" xlink:href="1577E119D5D0EFB.png"  transform="matrix(-1.0837 0 0 -1.0837 849.9407 442.5364)">
				</image>
			</g>
		</g>
	</g>
</g>
<g>
	<defs>
		<polygon id="SVGID_26_" points="846.8,592.1 568.3,592.1 305,440.1 583.5,440.1 846.8,592.1 		"/>
	</defs>
	<clipPath id="SVGID_27_">
		<use xlink:href="#SVGID_26_"  style="overflow:visible;"/>
	</clipPath>
	<g class="st13">
		<g>
			<defs>
				<rect id="SVGID_28_" x="305" y="440.1" width="541.9" height="152"/>
			</defs>
			<clipPath id="SVGID_29_">
				<use xlink:href="#SVGID_28_"  style="overflow:visible;"/>
			</clipPath>
			<g class="st14">
				
					<image style="overflow:visible;enable-background:new    ;" width="508" height="145" xlink:href="1577E119D5D0EFC.png"  transform="matrix(-1.0837 0 0 -1.0837 849.9407 595.1766)">
				</image>
			</g>
		</g>
	</g>
</g>
<g>
	<defs>
		<polygon id="SVGID_30_" points="846.8,896.2 568.3,896.2 831.6,744.2 1110.2,744.2 846.8,896.2 		"/>
	</defs>
	<clipPath id="SVGID_31_">
		<use xlink:href="#SVGID_30_"  style="overflow:visible;"/>
	</clipPath>
	<g class="st15">
		<g>
			<defs>
				<rect id="SVGID_32_" x="568.3" y="744.2" width="541.9" height="152"/>
			</defs>
			<clipPath id="SVGID_33_">
				<use xlink:href="#SVGID_32_"  style="overflow:visible;"/>
			</clipPath>
			<g class="st16">
				
					<image style="overflow:visible;enable-background:new    ;" width="508" height="145" xlink:href="1577E119D5D0EFD.png"  transform="matrix(-1.0837 0 0 -1.0837 1112.4061 899.3898)">
				</image>
			</g>
		</g>
	</g>
</g>
<g>
	<defs>
		<polygon id="SVGID_34_" points="1110.2,1048.3 831.6,1048.3 568.3,896.2 846.8,896.2 1110.2,1048.3 		"/>
	</defs>
	<clipPath id="SVGID_35_">
		<use xlink:href="#SVGID_34_"  style="overflow:visible;"/>
	</clipPath>
	<g class="st17">
		<g>
			<defs>
				<rect id="SVGID_36_" x="568.3" y="896.2" width="541.9" height="152"/>
			</defs>
			<clipPath id="SVGID_37_">
				<use xlink:href="#SVGID_36_"  style="overflow:visible;"/>
			</clipPath>
			<g class="st18">
				
					<image style="overflow:visible;enable-background:new    ;" width="508" height="144" xlink:href="1577E119D5D0EFE.png"  transform="matrix(-1.0837 0 0 -1.0837 1112.4061 1050.9546)">
				</image>
			</g>
		</g>
	</g>
</g>
<g>
	<defs>
		<polygon id="SVGID_38_" points="846.8,592.1 568.3,592.1 831.6,440.1 1110.2,440.1 846.8,592.1 		"/>
	</defs>
	<clipPath id="SVGID_39_">
		<use xlink:href="#SVGID_38_"  style="overflow:visible;"/>
	</clipPath>
	<g class="st19">
		<g>
			<defs>
				<rect id="SVGID_40_" x="568.3" y="440.1" width="541.9" height="152"/>
			</defs>
			<clipPath id="SVGID_41_">
				<use xlink:href="#SVGID_40_"  style="overflow:visible;"/>
			</clipPath>
			<g class="st20">
				
					<image style="overflow:visible;enable-background:new    ;" width="508" height="145" xlink:href="31A5388BBE732760.png"  transform="matrix(-1.0837 0 0 -1.0837 1112.4061 595.1848)">
				</image>
			</g>
		</g>
	</g>
</g>
<g>
	<defs>
		<polygon id="SVGID_42_" points="1110.2,744.2 831.6,744.2 568.3,592.1 846.8,592.1 1110.2,744.2 		"/>
	</defs>
	<clipPath id="SVGID_43_">
		<use xlink:href="#SVGID_42_"  style="overflow:visible;"/>
	</clipPath>
	<g class="st21">
		<g>
			<defs>
				<rect id="SVGID_44_" x="568.3" y="592.1" width="541.9" height="152"/>
			</defs>
			<clipPath id="SVGID_45_">
				<use xlink:href="#SVGID_44_"  style="overflow:visible;"/>
			</clipPath>
			<g class="st22">
				
					<image style="overflow:visible;enable-background:new    ;" width="508" height="144" xlink:href="31A5388BBE732761.png"  transform="matrix(-1.0837 0 0 -1.0837 1112.4061 746.7496)">
				</image>
			</g>
		</g>
	</g>
</g>
<g>
	<defs>
		<polygon id="SVGID_46_" points="1110.2,744.2 831.6,744.2 1095,592.1 1373.5,592.1 1110.2,744.2 		"/>
	</defs>
	<clipPath id="SVGID_47_">
		<use xlink:href="#SVGID_46_"  style="overflow:visible;"/>
	</clipPath>
	<g class="st23">
		<g>
			<defs>
				<rect id="SVGID_48_" x="831.6" y="592.1" width="541.9" height="152"/>
			</defs>
			<clipPath id="SVGID_49_">
				<use xlink:href="#SVGID_48_"  style="overflow:visible;"/>
			</clipPath>
			<g class="st24">
				
					<image style="overflow:visible;enable-background:new    ;" width="508" height="144" xlink:href="31A5388BBE73277E.png"  transform="matrix(-1.0837 0 0 -1.0837 1375.9634 746.7496)">
				</image>
			</g>
		</g>
	</g>
</g>
<g>
	<defs>
		<polygon id="SVGID_50_" points="1373.5,896.2 1095,896.2 831.6,744.2 1110.2,744.2 1373.5,896.2 		"/>
	</defs>
	<clipPath id="SVGID_51_">
		<use xlink:href="#SVGID_50_"  style="overflow:visible;"/>
	</clipPath>
	<g class="st25">
		<g>
			<defs>
				<rect id="SVGID_52_" x="831.6" y="744.2" width="541.9" height="152"/>
			</defs>
			<clipPath id="SVGID_53_">
				<use xlink:href="#SVGID_52_"  style="overflow:visible;"/>
			</clipPath>
			<g class="st26">
				
					<image style="overflow:visible;enable-background:new    ;" width="508" height="145" xlink:href="31A5388BBE732766.png"  transform="matrix(-1.0837 0 0 -1.0837 1375.9634 899.3898)">
				</image>
			</g>
		</g>
	</g>
</g>
<g>
	<defs>
		<polygon id="SVGID_54_" points="846.8,288.1 568.3,288.1 831.6,136 1110.2,136 846.8,288.1 		"/>
	</defs>
	<clipPath id="SVGID_55_">
		<use xlink:href="#SVGID_54_"  style="overflow:visible;"/>
	</clipPath>
	<g class="st27">
		<g>
			<defs>
				<rect id="SVGID_56_" x="568.3" y="136" width="541.9" height="152"/>
			</defs>
			<clipPath id="SVGID_57_">
				<use xlink:href="#SVGID_56_"  style="overflow:visible;"/>
			</clipPath>
			<g class="st28">
				
					<image style="overflow:visible;enable-background:new    ;" width="508" height="145" xlink:href="31A5388BBE73276A.png"  transform="matrix(-1.0837 0 0 -1.0837 1112.4061 290.9717)">
				</image>
			</g>
		</g>
	</g>
</g>
<g>
	<defs>
		<polygon id="SVGID_58_" points="1110.2,440.1 831.6,440.1 568.3,288.1 846.8,288.1 1110.2,440.1 		"/>
	</defs>
	<clipPath id="SVGID_59_">
		<use xlink:href="#SVGID_58_"  style="overflow:visible;"/>
	</clipPath>
	<g class="st29">
		<g>
			<defs>
				<rect id="SVGID_60_" x="568.3" y="288.1" width="541.9" height="152"/>
			</defs>
			<clipPath id="SVGID_61_">
				<use xlink:href="#SVGID_60_"  style="overflow:visible;"/>
			</clipPath>
			<g class="st30">
				
					<image style="overflow:visible;enable-background:new    ;" width="508" height="144" xlink:href="31A5388BBE73276B.png"  transform="matrix(-1.0837 0 0 -1.0837 1112.4061 442.5364)">
				</image>
			</g>
		</g>
	</g>
</g>
<g>
	<defs>
		<polygon id="SVGID_62_" points="1110.2,440.1 831.6,440.1 1095,288.1 1373.5,288.1 1110.2,440.1 		"/>
	</defs>
	<clipPath id="SVGID_63_">
		<use xlink:href="#SVGID_62_"  style="overflow:visible;"/>
	</clipPath>
	<g class="st31">
		<g>
			<defs>
				<rect id="SVGID_64_" x="831.6" y="288.1" width="541.9" height="152"/>
			</defs>
			<clipPath id="SVGID_65_">
				<use xlink:href="#SVGID_64_"  style="overflow:visible;"/>
			</clipPath>
			<g class="st32">
				
					<image style="overflow:visible;enable-background:new    ;" width="508" height="144" xlink:href="31A5388BBE73276C.png"  transform="matrix(-1.0837 0 0 -1.0837 1375.9634 442.5364)">
				</image>
			</g>
		</g>
	</g>
</g>
<polygon class="st33" points="1093.9,898.5 1371.5,898.5 1372.7,895.8 1369.6,894 1096.1,894 1093.9,898.5 "/>
<g>
	<defs>
		<polygon id="SVGID_66_" points="1373.5,592.1 1095,592.1 831.6,440.1 1110.2,440.1 1373.5,592.1 		"/>
	</defs>
	<clipPath id="SVGID_67_">
		<use xlink:href="#SVGID_66_"  style="overflow:visible;"/>
	</clipPath>
	<g class="st34">
		<g>
			<defs>
				<rect id="SVGID_68_" x="831.6" y="440.1" width="541.9" height="152"/>
			</defs>
			<clipPath id="SVGID_69_">
				<use xlink:href="#SVGID_68_"  style="overflow:visible;"/>
			</clipPath>
			<g class="st35">
				
					<image style="overflow:visible;enable-background:new    ;" width="508" height="145" xlink:href="31A5388BBE73276D.png"  transform="matrix(-1.0837 0 0 -1.0837 1375.9634 595.1766)">
				</image>
			</g>
		</g>
	</g>
</g>
<polygon class="st36" points="306.1,1050.2 1099.5,592.1 306.1,134.1 303.8,138 1090.5,592.1 303.8,1046.3 306.1,1050.2 "/>
<polygon class="st36" points="1093.9,898.2 1096.1,894.3 309.5,440.1 835.7,138 833.4,134.1 300.4,440.1 303.8,442.1 1093.9,898.2 
	"/>
<polygon class="st37" points="831.6,138.3 1110.2,138.3 1110.2,133.8 831.6,133.8 831.6,138.3 "/>
<polygon class="st37" points="1095,290.3 1373.5,290.3 1373.5,285.8 1095,285.8 1095,290.3 "/>
<polygon class="st36" points="569.4,1202.2 836.1,1048.3 309.5,744.2 1096.1,290 1093.9,286.1 300.5,744.2 827.1,1048.3 
	567.2,1198.3 569.4,1202.2 "/>
<polygon class="st38" points="1009.8,862.9 1009.8,892.2 1021.7,880.3 1021.7,894.7 1004.7,911.6 987.8,894.7 987.8,880.3 
	999.7,892.2 999.7,862.9 "/>
<path class="st38" d="M1001.7,789.8h-4.8v-23.1h4.8V789.8z"/>
<path class="st38" d="M1019.6,773.7c1.1,0.9,1.6,2.5,1.6,4.6v11.5h-4.6v-10.4c0-0.7-0.1-1.4-0.4-2.1c-0.5-0.9-1.5-1.4-2.5-1.3
	c-1.3-0.1-2.6,0.7-3.1,1.9c-0.3,0.8-0.5,1.7-0.4,2.6v9.3h-4.5v-17.1h4.3v2.5c0.4-0.7,1-1.4,1.6-1.9c1-0.7,2.2-1.1,3.5-1
	C1016.8,772.2,1018.4,772.7,1019.6,773.7z"/>
<path class="st38" d="M1039.1,773.7c1.1,0.9,1.6,2.5,1.6,4.6v11.5h-4.6v-10.4c0-0.7-0.1-1.4-0.4-2.1c-0.5-0.9-1.5-1.4-2.5-1.3
	c-1.3-0.1-2.6,0.7-3.1,1.9c-0.3,0.8-0.5,1.7-0.4,2.6v9.3h-4.5v-17.1h4.3v2.5c0.4-0.7,1-1.4,1.6-1.9c1-0.7,2.2-1.1,3.5-1
	C1036.4,772.2,1037.9,772.7,1039.1,773.7z"/>
<path class="st38" d="M1059.2,787.6c-1.4,1.8-3.6,2.7-6.6,2.7s-5.1-0.9-6.6-2.7c-2.9-3.8-2.9-9,0-12.8c1.4-1.8,3.6-2.7,6.6-2.7
	c2.9,0,5.1,0.9,6.6,2.7C1062.1,778.6,1062.1,783.9,1059.2,787.6z M1055.6,785.2c1.4-2.4,1.4-5.4,0-7.9c-1.4-1.7-3.9-1.8-5.6-0.4
	c-0.1,0.1-0.3,0.3-0.4,0.4c-1.4,2.4-1.4,5.4,0,7.9c1.4,1.7,3.9,1.9,5.6,0.4C1055.3,785.5,1055.5,785.3,1055.6,785.2z"/>
<path class="st38" d="M1075,772.7h4.8l-6.2,17.1h-4.7l-6.1-17h5l3.5,12.5L1075,772.7z"/>
<path class="st38" d="M1089.1,779.4c0.6-0.1,1.2-0.2,1.8-0.4c0.6-0.2,1-0.7,1-1.3c0.1-0.6-0.2-1.2-0.7-1.4c-0.7-0.3-1.4-0.4-2.2-0.4
	c-0.8-0.1-1.7,0.2-2.3,0.8c-0.3,0.5-0.6,1-0.6,1.6h-4.3c0-1.3,0.5-2.6,1.3-3.7c1.2-1.5,3.2-2.3,6.1-2.2c1.7,0,3.4,0.3,5,1.1
	c1.5,0.7,2.2,2.1,2.2,4.2v7.8c0,0.5,0,1.2,0,2c0,0.4,0.1,0.8,0.3,1.2c0.2,0.2,0.4,0.4,0.7,0.5v0.7h-4.8c-0.1-0.3-0.2-0.6-0.3-1
	c0-0.3-0.1-0.7-0.1-1c-0.6,0.7-1.3,1.3-2.1,1.7c-1,0.6-2.1,0.8-3.3,0.8c-1.4,0.1-2.8-0.4-3.8-1.3c-1-1-1.6-2.3-1.5-3.7
	c-0.1-1.9,0.8-3.6,2.5-4.5c1.2-0.6,2.6-1,3.9-1.1L1089.1,779.4z M1091.8,781.4c-0.3,0.2-0.5,0.3-0.8,0.4c-0.4,0.1-0.8,0.2-1.2,0.3
	l-1,0.2c-0.7,0.1-1.4,0.3-2,0.6c-0.7,0.4-1.1,1.1-1.1,1.9c-0.1,0.6,0.2,1.2,0.6,1.6c0.4,0.3,1,0.5,1.6,0.5c1,0,1.9-0.3,2.7-0.8
	c0.8-0.5,1.2-1.6,1.3-3.1L1091.8,781.4z"/>
<path class="st38" d="M1098.4,776v-3.2h2.4v-4.8h4.4v4.8h2.8v3.2h-2.8v9c-0.1,0.5,0,0.9,0.3,1.3c0.5,0.2,1.1,0.3,1.6,0.3h0.4h0.4
	v3.3l-2.1,0.1c-2.1,0.1-3.5-0.3-4.3-1.1c-0.5-0.7-0.8-1.5-0.8-2.4V776H1098.4z"/>
<path class="st38" d="M1115.4,770.6h-4.5v-4.1h4.5V770.6z M1110.9,772.7h4.5v17.1h-4.5V772.7z"/>
<path class="st38" d="M1133.4,773.7c1.1,0.9,1.6,2.5,1.6,4.6v11.5h-4.6v-10.4c0-0.7-0.1-1.4-0.4-2.1c-0.5-0.9-1.5-1.4-2.5-1.3
	c-1.3-0.1-2.6,0.7-3.1,1.9c-0.3,0.8-0.5,1.7-0.4,2.6v9.3h-4.4v-17.1h4.3v2.5c0.4-0.7,1-1.4,1.6-1.9c1-0.7,2.2-1.1,3.5-1
	C1130.7,772.2,1132.2,772.7,1133.4,773.7z"/>
<path class="st38" d="M1147.7,772.7c1.1,0.5,2.1,1.4,2.6,2.5v-2.5h4.3v16.2c0.1,1.7-0.3,3.5-1.1,5c-1.3,1.9-3.7,2.9-7.3,2.9
	c-1.9,0.1-3.7-0.4-5.3-1.3c-1.4-0.8-2.2-2.3-2.3-3.8h4.9c0.1,0.4,0.3,0.8,0.6,1.1c0.7,0.5,1.6,0.7,2.5,0.6c1.6,0,2.7-0.5,3.2-1.6
	c0.4-1.1,0.6-2.3,0.5-3.5v-1.1c-0.9,1.8-2.8,2.8-4.8,2.7c-2,0.1-3.9-0.8-5.2-2.3c-1.4-1.8-2.1-4-2-6.2c-0.1-2.3,0.6-4.5,1.9-6.4
	c1.2-1.7,3.2-2.7,5.4-2.6C1146.3,772.2,1147,772.4,1147.7,772.7z M1149.2,784.9c0.8-1.1,1.2-2.4,1.1-3.8c0.1-1.3-0.3-2.6-1-3.7
	c-0.7-0.8-1.7-1.3-2.7-1.3c-1.4-0.1-2.8,0.8-3.2,2.2c-0.3,0.9-0.5,1.9-0.5,2.9c0,0.9,0.2,1.8,0.5,2.6c0.5,1.4,1.8,2.2,3.2,2.2
	C1147.6,786.1,1148.5,785.6,1149.2,784.9L1149.2,784.9z"/>
<path class="st38" d="M1172.2,789.8h-4.4v-23.1h4.4V789.8z"/>
<path class="st38" d="M1187.7,773c1.2,0.5,2.2,1.4,2.9,2.5c0.7,1.1,1.2,2.3,1.4,3.5c0.1,1.1,0.2,2.3,0.1,3.4h-12.5
	c-0.1,1.4,0.6,2.8,1.8,3.6c0.7,0.4,1.6,0.7,2.5,0.6c0.9,0,1.8-0.3,2.5-0.8c0.4-0.3,0.7-0.7,0.9-1.2h4.5c-0.2,1.2-0.8,2.3-1.6,3.1
	c-1.7,1.7-4,2.6-6.4,2.5c-2.2,0-4.3-0.7-6-2.1c-1.7-1.4-2.6-3.7-2.6-6.8c0-2.9,0.8-5.2,2.3-6.8c1.6-1.6,3.8-2.5,6.1-2.4
	C1185.1,772.2,1186.4,772.5,1187.7,773z M1181,776.9c-0.7,0.7-1.1,1.7-1.2,2.6h7.7c0-1-0.4-2-1.2-2.7c-0.7-0.6-1.7-1-2.6-0.9
	C1182.7,775.8,1181.8,776.2,1181,776.9z"/>
<path class="st38" d="M1201.2,779.4c0.6-0.1,1.2-0.2,1.8-0.4c0.6-0.2,1-0.7,1-1.3c0.1-0.6-0.2-1.2-0.7-1.4c-0.7-0.3-1.4-0.4-2.2-0.4
	c-0.8-0.1-1.7,0.2-2.3,0.8c-0.3,0.5-0.6,1-0.6,1.6h-4.3c0-1.3,0.5-2.6,1.3-3.7c1.2-1.5,3.2-2.3,6.1-2.2c1.7,0,3.4,0.3,5,1.1
	c1.5,0.7,2.2,2.1,2.2,4.2v7.8c0,0.5,0,1.2,0,2c0,0.4,0.1,0.8,0.3,1.2c0.2,0.2,0.4,0.4,0.7,0.5v0.7h-4.8c-0.1-0.3-0.2-0.6-0.3-1
	c0-0.3-0.1-0.7-0.1-1c-0.6,0.7-1.3,1.3-2.1,1.7c-1,0.6-2.1,0.8-3.3,0.8c-1.4,0.1-2.8-0.4-3.8-1.3c-1-1-1.6-2.3-1.5-3.7
	c-0.1-1.9,0.8-3.6,2.5-4.5c1.2-0.6,2.6-1,3.9-1.1L1201.2,779.4z M1203.9,781.4c-0.3,0.2-0.6,0.3-0.9,0.4c-0.4,0.1-0.8,0.2-1.2,0.3
	l-1,0.2c-0.7,0.1-1.4,0.3-2,0.6c-0.7,0.4-1.1,1.1-1.1,1.9c-0.1,0.6,0.2,1.2,0.6,1.6c0.4,0.3,1,0.5,1.6,0.5c1,0,1.9-0.3,2.7-0.8
	c0.8-0.5,1.2-1.6,1.3-3.1V781.4z"/>
<path class="st38" d="M1221.7,772.3h0.4v4.6c-0.3,0-0.5-0.1-0.8-0.1h-0.5c-1.8,0-3,0.6-3.6,1.8c-0.4,1-0.6,2-0.5,3v8.2h-4.5v-17.1
	h4.3v3c0.5-0.9,1.1-1.6,1.8-2.3c0.9-0.7,2.1-1.1,3.3-1.1L1221.7,772.3z"/>
<path class="st38" d="M1238.4,773.7c1.1,0.9,1.6,2.5,1.6,4.6v11.5h-4.5v-10.4c0-0.7-0.1-1.4-0.4-2.1c-0.5-0.9-1.5-1.4-2.5-1.3
	c-1.3-0.1-2.6,0.7-3.1,1.9c-0.3,0.8-0.5,1.7-0.4,2.6v9.3h-4.5v-17.1h4.2v2.5c0.4-0.7,1-1.4,1.6-1.9c1-0.7,2.2-1.1,3.5-1
	C1235.7,772.2,1237.2,772.7,1238.4,773.7z"/>
<path class="st38" d="M1248.8,770.6h-4.5v-4.1h4.5V770.6z M1244.3,772.7h4.5v17.1h-4.5V772.7z"/>
<path class="st38" d="M1266.9,773.7c1.1,0.9,1.6,2.5,1.6,4.6v11.5h-4.6v-10.4c0-0.7-0.1-1.4-0.4-2.1c-0.5-0.9-1.4-1.4-2.5-1.3
	c-1.3-0.1-2.6,0.7-3.1,1.9c-0.3,0.8-0.5,1.7-0.4,2.6v9.3h-4.5v-17.1h4.3v2.5c0.4-0.7,1-1.4,1.6-1.9c1-0.7,2.2-1.1,3.5-1
	C1264.1,772.2,1265.6,772.7,1266.9,773.7z"/>
<path class="st38" d="M1281.1,772.7c1.1,0.5,2.1,1.4,2.6,2.5v-2.5h4.4v16.2c0.1,1.7-0.3,3.5-1.1,5c-1.3,1.9-3.7,2.9-7.3,2.9
	c-1.9,0.1-3.7-0.4-5.3-1.3c-1.4-0.8-2.2-2.2-2.3-3.8h4.8c0.1,0.4,0.3,0.8,0.6,1.1c0.7,0.5,1.6,0.7,2.5,0.6c1.6,0,2.7-0.5,3.2-1.6
	c0.4-1.1,0.6-2.3,0.5-3.5v-1.1c-0.3,0.6-0.8,1.2-1.4,1.6c-1,0.7-2.2,1.1-3.5,1c-2,0.1-3.9-0.8-5.2-2.3c-1.4-1.8-2.1-4-2-6.2
	c-0.1-2.3,0.6-4.5,1.9-6.4c1.2-1.7,3.3-2.7,5.4-2.6C1279.7,772.2,1280.4,772.4,1281.1,772.7z M1282.6,784.9c0.8-1.1,1.2-2.4,1.1-3.8
	c0.1-1.3-0.3-2.6-1-3.7c-0.7-0.8-1.7-1.3-2.7-1.3c-1.4-0.1-2.8,0.8-3.2,2.2c-0.3,0.9-0.5,1.9-0.5,2.9c0,0.9,0.2,1.8,0.5,2.6
	c0.5,1.4,1.8,2.2,3.3,2.2C1281,786.1,1282,785.6,1282.6,784.9z"/>
<path class="st38" d="M1307.9,779.4c0.6-0.1,1.2-0.2,1.8-0.4c0.6-0.2,1-0.7,1-1.3c0.1-0.6-0.2-1.1-0.7-1.4c-0.7-0.3-1.4-0.4-2.2-0.4
	c-0.8-0.1-1.7,0.2-2.3,0.8c-0.3,0.5-0.6,1-0.6,1.6h-4.3c0-1.3,0.5-2.6,1.3-3.7c1.2-1.5,3.2-2.2,6.1-2.2c1.7,0,3.4,0.3,5,1.1
	c1.5,0.7,2.2,2.1,2.2,4.2v7.8c0,0.5,0,1.2,0,2c0,0.4,0.1,0.8,0.3,1.2c0.2,0.2,0.4,0.4,0.7,0.5v0.7h-4.9c-0.1-0.3-0.2-0.6-0.3-1
	c0-0.3-0.1-0.6-0.1-1c-0.6,0.7-1.3,1.2-2.1,1.7c-1,0.6-2.1,0.8-3.3,0.8c-1.4,0.1-2.8-0.4-3.9-1.3c-1-1-1.6-2.3-1.5-3.7
	c-0.1-1.9,0.8-3.6,2.5-4.5c1.2-0.6,2.6-1,3.9-1.1L1307.9,779.4z M1310.6,781.4c-0.3,0.2-0.6,0.3-0.9,0.4c-0.4,0.1-0.8,0.2-1.2,0.3
	l-1,0.2c-0.7,0.1-1.4,0.3-2,0.6c-0.7,0.4-1.1,1.1-1.1,1.9c-0.1,0.6,0.2,1.2,0.6,1.6c0.4,0.3,1,0.5,1.6,0.5c1,0,1.9-0.3,2.7-0.8
	c0.8-0.6,1.2-1.6,1.3-3.1L1310.6,781.4z"/>
<path class="st38" d="M1332.7,773.7c1.1,0.9,1.6,2.5,1.6,4.6v11.5h-4.6v-10.4c0-0.7-0.1-1.4-0.4-2.1c-0.5-0.9-1.5-1.4-2.5-1.3
	c-1.3-0.1-2.6,0.7-3.1,1.9c-0.3,0.8-0.5,1.7-0.4,2.6v9.3h-4.5v-17.1h4.3v2.5c0.4-0.7,1-1.4,1.6-1.9c1-0.7,2.2-1.1,3.5-1
	C1330,772.2,1331.5,772.7,1332.7,773.7z"/>
<path class="st38" d="M1347.5,773c0.8,0.5,1.5,1.1,2,1.9v-8.1h4.5v23h-4.3v-2.4c-0.5,0.9-1.3,1.7-2.2,2.2c-0.9,0.5-2,0.7-3,0.7
	c-2,0-3.8-0.9-5-2.4c-1.4-1.7-2.1-4-2-6.2c0-2.9,0.7-5.2,2-6.9c1.3-1.6,3.3-2.5,5.4-2.5C1345.7,772.3,1346.7,772.5,1347.5,773z
	 M1348.6,785.1c0.7-1.1,1-2.4,1-3.6c0-2.1-0.5-3.6-1.6-4.5c-0.6-0.5-1.4-0.8-2.2-0.8c-1.2-0.1-2.3,0.5-2.9,1.5
	c-0.6,1.1-1,2.4-0.9,3.7c-0.1,1.3,0.3,2.6,0.9,3.8c0.6,0.9,1.7,1.5,2.8,1.4C1346.9,786.6,1348,786,1348.6,785.1L1348.6,785.1z"/>
<path class="st38" d="M1008,809.2c1.2,0.5,2.2,1.4,2.9,2.5c0.7,1.1,1.2,2.3,1.4,3.5c0.1,1.1,0.2,2.3,0.1,3.4h-12.4
	c-0.1,1.4,0.6,2.8,1.8,3.6c0.7,0.4,1.6,0.7,2.5,0.6c1.4,0.1,2.8-0.7,3.4-2h4.5c-0.2,1.2-0.8,2.3-1.6,3.1c-1.7,1.7-4,2.6-6.4,2.5
	c-2.2,0-4.3-0.7-6-2.1c-1.7-1.4-2.6-3.7-2.6-6.8c0-2.9,0.8-5.2,2.3-6.8c1.6-1.6,3.8-2.5,6.1-2.4
	C1005.4,808.3,1006.8,808.6,1008,809.2z M1001.4,813c-0.7,0.7-1.1,1.7-1.2,2.6h7.7c0-1-0.4-2-1.2-2.7c-0.7-0.6-1.7-1-2.6-0.9
	C1003.1,812,1002.1,812.3,1001.4,813z"/>
<path class="st38" d="M1023.8,809.1c0.8,0.5,1.5,1.1,2,1.9v-8.1h4.5v23h-4.3v-2.4c-0.5,0.9-1.3,1.7-2.2,2.2c-0.9,0.5-2,0.7-3,0.7
	c-2,0-3.8-0.9-5-2.4c-1.4-1.7-2.1-4-2-6.2c0-2.9,0.7-5.2,2-6.9c1.3-1.6,3.3-2.5,5.4-2.5C1022,808.4,1022.9,808.6,1023.8,809.1z
	 M1024.9,821.2c0.7-1.1,1-2.4,1-3.6c0-2.1-0.5-3.6-1.6-4.5c-0.6-0.5-1.4-0.8-2.2-0.8c-1.2-0.1-2.3,0.5-2.9,1.5
	c-1.2,2.3-1.2,5.1,0,7.4c0.6,0.9,1.7,1.5,2.8,1.4C1023.1,822.7,1024.2,822.2,1024.9,821.2L1024.9,821.2z"/>
<path class="st38" d="M1038.8,808.8v10.3c0,0.7,0.1,1.5,0.3,2.2c0.4,0.9,1.4,1.4,2.4,1.3c1.3,0.1,2.6-0.6,3.1-1.8
	c0.3-0.8,0.5-1.7,0.4-2.6v-9.3h4.5v17.1h-4.3v-2.5c0,0-0.1,0.2-0.3,0.5c-0.2,0.3-0.4,0.5-0.6,0.7c-0.6,0.6-1.3,1-2,1.3
	c-0.7,0.2-1.5,0.4-2.3,0.3c-2.5,0-4.2-0.9-5.1-2.7c-0.6-1.4-0.8-2.9-0.7-4.4v-10.3H1038.8z"/>
<path class="st38" d="M1064.1,814.9c-0.1-0.6-0.3-1.2-0.6-1.7c-0.6-0.7-1.4-1.1-2.3-1c-1.4-0.1-2.7,0.9-3.1,2.2
	c-0.3,1-0.5,2.1-0.4,3.2c0,1,0.1,2,0.4,3c0.4,1.3,1.6,2.2,3,2.1c0.8,0.1,1.7-0.2,2.2-0.8c0.5-0.6,0.8-1.4,0.8-2.2h4.5
	c-0.1,1.4-0.6,2.7-1.5,3.9c-1.4,2-3.8,3.1-6.2,2.9c-2.7,0-4.8-0.8-6.1-2.5c-1.4-1.8-2-4.1-1.9-6.3c0-2.9,0.7-5.2,2.1-6.8
	c1.5-1.7,3.7-2.6,5.9-2.5c1.9-0.1,3.7,0.4,5.2,1.4c1.4,1,2.2,2.7,2.4,5.1L1064.1,814.9z"/>
<path class="st38" d="M1078.4,815.5c0.6-0.1,1.2-0.2,1.8-0.4c0.6-0.2,1-0.7,1-1.3c0.1-0.6-0.2-1.2-0.7-1.4c-0.7-0.3-1.4-0.4-2.2-0.4
	c-0.8-0.1-1.7,0.2-2.3,0.8c-0.3,0.5-0.6,1-0.6,1.6h-4.3c0-1.3,0.5-2.6,1.3-3.7c1.2-1.5,3.2-2.3,6.1-2.2c1.7,0,3.4,0.3,5,1.1
	c1.5,0.7,2.2,2.1,2.2,4.2v7.8c0,0.5,0,1.2,0,2c0,0.4,0.1,0.8,0.3,1.2c0.2,0.2,0.4,0.4,0.7,0.5v0.7h-4.8c-0.1-0.3-0.2-0.6-0.3-1
	c-0.1-0.3-0.1-0.7-0.1-1c-0.6,0.7-1.3,1.3-2.1,1.7c-1,0.6-2.1,0.8-3.3,0.8c-1.4,0.1-2.8-0.4-3.8-1.3c-1-1-1.6-2.3-1.5-3.7
	c-0.1-1.9,0.8-3.6,2.5-4.5c1.2-0.6,2.6-1,3.9-1.1L1078.4,815.5z M1081.2,817.6c-0.3,0.2-0.5,0.3-0.8,0.4c-0.4,0.1-0.8,0.2-1.2,0.3
	l-1,0.2c-0.7,0.1-1.4,0.3-2.1,0.6c-0.7,0.4-1.1,1.1-1.1,1.9c-0.1,0.6,0.2,1.2,0.6,1.6c0.4,0.3,1,0.5,1.6,0.5c1,0,1.9-0.3,2.7-0.8
	c0.8-0.6,1.2-1.6,1.3-3.1V817.6z"/>
<path class="st38" d="M1087.7,812.1V809h2.4v-4.8h4.4v4.8h2.8v3.2h-2.8v9c-0.1,0.5,0,0.9,0.3,1.3c0.5,0.2,1.1,0.3,1.6,0.3h0.4h0.4
	v3.3l-2.1,0.1c-2.1,0.1-3.5-0.3-4.3-1.1c-0.5-0.7-0.8-1.5-0.8-2.4v-10.5H1087.7z"/>
<path class="st38" d="M1104.7,806.8h-4.5v-4.1h4.5V806.8z M1100.2,808.8h4.5v17.1h-4.5V808.8z"/>
<path class="st38" d="M1123.3,823.8c-1.4,1.8-3.6,2.7-6.6,2.7s-5.1-0.9-6.6-2.7c-2.9-3.8-2.9-9,0-12.8c1.4-1.8,3.6-2.7,6.6-2.7
	c2.9,0,5.1,0.9,6.6,2.7C1126.1,814.7,1126.1,820,1123.3,823.8z M1119.7,821.3c1.4-2.4,1.4-5.4,0-7.9c-1.4-1.7-3.9-1.8-5.6-0.4
	c-0.1,0.1-0.3,0.3-0.4,0.4c-1.4,2.4-1.4,5.4,0,7.9c1.4,1.7,3.9,1.9,5.6,0.4C1119.4,821.6,1119.6,821.5,1119.7,821.3z"/>
<path class="st38" d="M1142.3,809.8c1.1,0.9,1.6,2.5,1.6,4.6v11.5h-4.6v-10.4c0-0.7-0.1-1.4-0.4-2.1c-0.5-0.9-1.5-1.4-2.5-1.3
	c-1.3-0.1-2.6,0.7-3.1,1.9c-0.3,0.8-0.5,1.7-0.4,2.6v9.3h-4.5v-17.1h4.3v2.5c0.4-0.7,1-1.4,1.6-1.9c1-0.7,2.2-1.1,3.5-1
	C1139.6,808.3,1141.1,808.8,1142.3,809.8z"/>
<path class="st38" d="M1161.7,806.8h-4.5v-4.1h4.5V806.8z M1157.2,808.8h4.5v17.1h-4.5V808.8z"/>
<path class="st38" d="M1179.7,809.8c1.1,0.9,1.6,2.5,1.6,4.6v11.5h-4.6v-10.4c0-0.7-0.1-1.4-0.4-2.1c-0.5-0.9-1.5-1.4-2.5-1.3
	c-1.3-0.1-2.6,0.7-3.1,1.9c-0.3,0.8-0.5,1.7-0.4,2.6v9.3h-4.5v-17.1h4.3v2.5c0.4-0.7,1-1.4,1.6-1.9c1-0.7,2.2-1.1,3.5-1
	C1177,808.3,1178.5,808.8,1179.7,809.8z"/>
<path class="st38" d="M1192.7,812.1V809h2.4v-4.8h4.4v4.8h2.8v3.2h-2.8v9c-0.1,0.5,0,0.9,0.3,1.3c0.5,0.2,1.1,0.3,1.6,0.3h0.4h0.4
	v3.3l-2.1,0.1c-2.1,0.1-3.5-0.3-4.3-1.1c-0.5-0.7-0.8-1.5-0.7-2.4v-10.5H1192.7z"/>
<path class="st38" d="M1217.3,808.9c0.8,0.3,1.6,0.9,2.1,1.6c0.4,0.6,0.7,1.2,0.9,2c0.1,1.1,0.2,2.2,0.2,3.3v10.1h-4.6v-10.4
	c0-0.8-0.1-1.5-0.5-2.2c-0.5-0.8-1.4-1.3-2.3-1.2c-1-0.1-2,0.4-2.7,1.2c-0.7,1-1,2.2-0.9,3.4v9.3h-4.5v-23h4.5v8.1
	c0.5-0.9,1.3-1.6,2.2-2.1c0.8-0.4,1.7-0.6,2.7-0.6C1215.4,808.3,1216.4,808.5,1217.3,808.9z"/>
<path class="st38" d="M1235.7,809.2c1.2,0.5,2.2,1.4,2.9,2.5c0.7,1.1,1.2,2.3,1.4,3.5c0.1,1.1,0.2,2.3,0.1,3.4h-12.4
	c-0.1,1.4,0.6,2.8,1.8,3.6c0.7,0.4,1.6,0.7,2.5,0.6c0.9,0,1.8-0.3,2.5-0.8c0.4-0.3,0.7-0.7,0.9-1.2h4.5c-0.2,1.2-0.8,2.3-1.6,3.1
	c-1.7,1.7-4,2.6-6.4,2.5c-2.2,0-4.3-0.7-6-2.1c-1.7-1.4-2.6-3.7-2.6-6.8c0-2.9,0.8-5.2,2.3-6.8c1.6-1.6,3.8-2.5,6.1-2.4
	C1233.1,808.3,1234.5,808.6,1235.7,809.2z M1229.1,813c-0.7,0.7-1.1,1.7-1.2,2.6h7.7c0-1-0.4-2-1.2-2.7c-0.7-0.6-1.7-1-2.6-0.9
	C1230.8,812,1229.8,812.3,1229.1,813z"/>
<path class="st38" d="M1262.4,809.2c1.2,0.5,2.2,1.4,2.9,2.5c0.7,1.1,1.2,2.3,1.4,3.5c0.1,1.1,0.2,2.3,0.1,3.4h-12.5
	c-0.1,1.4,0.6,2.8,1.8,3.6c0.7,0.4,1.6,0.7,2.5,0.6c1.4,0.1,2.8-0.7,3.4-2h4.5c-0.2,1.2-0.8,2.3-1.6,3.1c-1.7,1.7-4,2.6-6.4,2.5
	c-2.2,0-4.3-0.7-6-2.1c-1.7-1.4-2.6-3.7-2.6-6.8c0-2.9,0.8-5.2,2.3-6.8c1.6-1.6,3.8-2.5,6.1-2.4
	C1259.8,808.3,1261.2,808.6,1262.4,809.2z M1255.8,813c-0.7,0.7-1.1,1.7-1.2,2.6h7.7c0-1-0.4-2-1.2-2.7c-0.7-0.6-1.7-1-2.6-0.9
	C1257.4,812,1256.5,812.3,1255.8,813z"/>
<path class="st38" d="M1278.6,808.4h0.4v4.6c-0.3,0-0.5-0.1-0.7-0.1h-0.5c-1.8,0-3,0.6-3.6,1.8c-0.4,1-0.6,2-0.5,3v8.2h-4.5v-17.1
	h4.2v3c0.5-0.9,1.1-1.7,1.8-2.3c0.9-0.7,2.1-1.1,3.3-1.1L1278.6,808.4z"/>
<path class="st38" d="M1288.3,815.5c0.6-0.1,1.2-0.2,1.8-0.4c0.6-0.2,1-0.7,1-1.3c0.1-0.6-0.2-1.2-0.7-1.4c-0.7-0.3-1.4-0.4-2.2-0.4
	c-0.8-0.1-1.7,0.2-2.3,0.8c-0.3,0.5-0.6,1-0.6,1.6h-4.3c0-1.3,0.5-2.6,1.3-3.7c1.2-1.5,3.2-2.3,6.1-2.2c1.7,0,3.4,0.3,5,1.1
	c1.5,0.7,2.2,2.1,2.2,4.2v7.8c0,0.5,0,1.2,0,2c0,0.4,0.1,0.8,0.3,1.2c0.2,0.2,0.4,0.4,0.7,0.5v0.7h-4.8c-0.1-0.3-0.2-0.6-0.3-1
	c-0.1-0.3-0.1-0.7-0.1-1c-0.6,0.7-1.3,1.3-2.1,1.7c-1,0.6-2.1,0.8-3.3,0.8c-1.4,0.1-2.8-0.4-3.8-1.3c-1-1-1.6-2.3-1.5-3.7
	c-0.1-1.9,0.8-3.6,2.5-4.5c1.2-0.6,2.6-1,3.9-1.1L1288.3,815.5z M1291.1,817.6c-0.3,0.2-0.5,0.3-0.8,0.4c-0.4,0.1-0.8,0.2-1.2,0.3
	l-1,0.2c-0.7,0.1-1.4,0.3-2.1,0.6c-0.7,0.4-1.1,1.1-1.1,1.9c-0.1,0.6,0.2,1.2,0.6,1.6c0.4,0.3,1,0.5,1.6,0.5c1,0,1.9-0.3,2.7-0.8
	c0.8-0.5,1.2-1.6,1.3-3.1L1291.1,817.6z"/>
<path class="st38" d="M1322.5,823.8c-1.4,1.8-3.6,2.7-6.6,2.7c-2.9,0-5.1-0.9-6.6-2.7c-2.9-3.8-2.9-9,0-12.8
	c1.4-1.8,3.6-2.7,6.6-2.7c2.9,0,5.1,0.9,6.6,2.7C1325.4,814.7,1325.4,820,1322.5,823.8z M1319,821.3c1.4-2.4,1.4-5.4,0-7.9
	c-1.4-1.7-3.9-1.8-5.6-0.4c-0.1,0.1-0.3,0.3-0.4,0.4c-1.4,2.4-1.4,5.4,0,7.9c1.4,1.7,3.9,1.9,5.6,0.4
	C1318.7,821.6,1318.8,821.5,1319,821.3z"/>
<path class="st38" d="M1334.9,802.6l0.9,0.1v3.6c-0.2,0-0.7-0.1-1.3-0.1c-0.7-0.2-1.4,0.3-1.5,1c0,0.1,0,0.2,0,0.3v1.4h2.9v3.1h-2.9
	v13.8h-4.4v-13.8h-2.5V809h2.5v-1.1c0-1.8,0.3-3.1,0.9-3.8c0.6-1,2.2-1.5,4.7-1.5C1334.4,802.6,1334.7,802.6,1334.9,802.6z"/>
<path class="st38" d="M1353.2,802.8h5.4l8.2,23h-5.2l-1.5-4.7h-8.5l-1.6,4.7h-5L1353.2,802.8z M1352.9,817.1h5.9l-2.9-9
	L1352.9,817.1z"/>
<path class="st38" d="M1374.1,825.9h-4.8v-23.1h4.8V825.9z"/>
<rect x="892" y="459.3" class="st39" width="186.4" height="145.6"/>
<rect x="754.2" y="403" class="st39" width="34.7" height="67.2"/>
<path class="st38" d="M709.8,390.1v276.6h671.2V390.1H709.8z M782.5,445.6l-0.3,0.3h-13v0.3l13,5.3l0.3,0.3v3.7l-0.3,0.3l-13,5.4
	v0.3h13l0.3,0.3v4l-0.3,0.3h-22.7l-0.3-0.3v-5l0.3-0.3l16.3-6.7v-0.3l-16.3-6.7l-0.3-0.3v-5l0.3-0.3h22.7l0.3,0.3V445.6z
	 M782.5,435.6l-0.3,0.3h-22.7l-0.3-0.3v-4l0.3-0.3h22.7l0.3,0.3V435.6z M782.5,420.3l-0.3,0.3h-18.7l-0.3,0.3v6.7l-0.3,0.3h-3.3
	l-0.3-0.3v-18.7l0.3-0.3h3.3l0.3,0.3v6.7l0.3,0.3h18.7l0.3,0.3L782.5,420.3z M788.9,585V480.4h28.8c21.5,0,38.8,14.6,38.8,32.7
	c0,14.6-11.4,27-27.1,31.2l28.7,40.8L788.9,585z M892,585l24.3-51.3l24.3-51l24.3,51l24.3,51.3H892z M1078.4,585h-53.1v-102h53.1
	L1078.4,585z M1196,553c0,18.9-16.7,34.2-37.3,34.2s-37.3-15.3-37.3-34.2c0-1.4,0.1-2.9,0.3-4.3h23v-2.5
	c-13.7-5.1-23.3-17.3-23.3-31.7c0-18.9,16.7-34.2,37.3-34.2s37.3,15.3,37.3,34.2c0,1.4-0.1,2.9-0.3,4.3h-23v2.5
	C1186.4,526.4,1196.1,538.7,1196,553L1196,553z M1302.8,514H1273v2.9h29.8v32.1h-30v3.2h30v31.2h-71.2l-0.4-101.6h71.5L1302.8,514z"
	/>
<polygon class="st40" points="929,476.6 952.9,526.7 976.7,576.8 929,576.8 881.4,576.8 905.2,526.7 "/>
<rect x="1017.6" y="475.8" class="st40" width="52.1" height="100.1"/>
</svg>
