<svg id="artwork" xmlns="http://www.w3.org/2000/svg" viewBox="0 0 208.4 58.7"><style>.st0{fill:#ed1b2f}.st1{fill:#939598}</style><path class="st0" d="M27.4 45.1c0 7-5.7 13.2-13 13.2-6.2 0-13.4-3-13.4-13.4V13.5C1 6 6.3.4 14.3.4 21.8.4 27.4 6 27.4 14v3.2h-8.2v-2.7c0-3.2-1.9-5.9-5-5.9-4.1 0-5 2.8-5 6.6v29.1c0 3.3 1.3 5.8 5 5.8 2.2 0 5.1-1.3 5.1-5.8v-2.8h8.2v3.6zM34 .8h8.2v24.4h10.1V.8h8.2v57h-8.2V32.5H42.2v25.4H34V.8zM68.1.8H76L86.4 31h.2L97 .8h7.9v57h-8.2V23.2h-.2l-8.1 24.5h-4.1l-8-24.5h-.2v34.7h-8.2V.8z"/><g><path class="st1" d="M122.8 15.5c-1.5 0-2.9-.6-3.9-1.6-1.5-1.5-1.4-3.1-1.4-5.9 0-2.8 0-4.5 1.4-5.9 1-1 2.4-1.6 3.9-1.6 2.7 0 4.8 1.6 5.3 4.6h-2.3c-.4-1.5-1.4-2.5-3-2.5-.9 0-1.7.3-2.2.9-.7.8-.9 1.6-.9 4.6 0 3 .2 3.8.9 4.6.5.6 1.3.9 2.2.9 1.6 0 2.7-1 3-2.5h2.3c-.5 2.8-2.6 4.4-5.3 4.4zM137.6 14.3c-.7.7-1.7 1.2-3.2 1.2-1.4 0-2.5-.5-3.1-1.2-1-1-1.2-2.4-1.2-4.2 0-1.8.2-3.1 1.2-4.1.7-.7 1.7-1.2 3.1-1.2 1.4 0 2.5.5 3.2 1.2 1 1 1.2 2.4 1.2 4.1 0 1.8-.2 3.1-1.2 4.2zM136 7.2c-.4-.4-.9-.6-1.6-.6-.6 0-1.1.2-1.5.6-.6.6-.7 1.7-.7 2.9 0 1.1.1 2.2.7 2.9.4.4.9.6 1.5.6s1.2-.2 1.6-.6c.6-.6.7-1.7.7-2.9s-.1-2.3-.7-2.9zM154.2 15.4V8.9c0-1.6-.9-2.4-2.1-2.4-1.1 0-2.2.7-2.2 2.2v6.5h-2.1V8.9c0-1.6-.9-2.4-2.1-2.4-1.2 0-2.2.7-2.2 2.4v6.4h-2.1V4.8h2.1v1.1c.7-.8 1.7-1.2 2.8-1.2 1.3 0 2.3.5 3 1.5.9-1 1.9-1.5 3.3-1.5 1.1 0 2 .4 2.7 1 .8.8 1.1 1.8 1.1 3v6.7h-2.2zM166.7 14.6c-.6.6-1.5.9-2.6.9s-2-.3-2.8-1.2v5.3h-2.1V4.8h2.1V6c.8-1 1.6-1.2 2.8-1.2 1.1 0 2 .4 2.6.9 1.1 1.1 1.2 2.8 1.2 4.5 0 1.5-.1 3.3-1.2 4.4zm-3.1-8c-1.9 0-2.2 1.6-2.2 3.5s.3 3.5 2.2 3.5c1.9 0 2.2-1.6 2.2-3.5s-.3-3.5-2.2-3.5zM176.9 15.4v-1.1c-.7.8-1.7 1.2-2.8 1.2-1.1 0-2-.4-2.6-1-.8-.8-1.1-1.8-1.1-3V4.8h2.1v6.4c0 1.6.9 2.4 2.1 2.4 1.2 0 2.2-.7 2.2-2.4V4.8h2.1v10.5h-2zM185.1 15.4c-2 0-2.9-1.4-2.9-2.9V6.6H181V5h1.2V1.8h2.1V5h2v1.6h-2v5.7c0 .8.4 1.2 1.2 1.2h.9v1.8h-1.3zM190.2 10.7c0 1.8 1 3 2.7 3 1.2 0 1.8-.3 2.6-1.1l1.4 1.3c-1.1 1.1-2.1 1.6-4 1.6-2.6 0-4.7-1.4-4.7-5.4 0-3.4 1.8-5.4 4.5-5.4 2.8 0 4.5 2.1 4.5 5.1v.9h-7zm4.5-2.9c-.3-.8-1.1-1.3-2.1-1.3s-1.8.5-2.1 1.3c-.2.5-.2.8-.3 1.4h4.7c.1-.6 0-.9-.2-1.4zM205.4 7.3c-.5-.5-.9-.7-1.6-.7-1.1 0-2.1.9-2.1 2.4v6.4h-2.1V4.8h2.1V6c.5-.7 1.6-1.3 2.8-1.3 1 0 1.8.3 2.5 1l-1.6 1.6zM126.3 36.6v-6.5h-6v6.5H118V21.8h2.2v6.3h6v-6.3h2.2v14.8h-2.1zM131.8 24v-2.2h2.2V24h-2.2zm0 12.6V26.1h2.1v10.5h-2.1zM140.4 36.7c-1.7 0-3.2-.3-4.4-1.5l1.4-1.4c.9.9 2 1.1 3 1.1 1.3 0 2.3-.5 2.3-1.5 0-.7-.4-1.2-1.4-1.2l-1.7-.1c-2-.2-3.1-1.1-3.1-2.9 0-2.1 1.8-3.2 4-3.2 1.6 0 2.9.3 3.9 1.2l-1.3 1.4c-.7-.6-1.6-.8-2.6-.8-1.3 0-1.9.6-1.9 1.4 0 .6.3 1.1 1.5 1.2l1.7.1c2 .2 3.1 1.1 3.1 3-.1 2.1-2 3.2-4.5 3.2zM150 36.6c-2 0-2.9-1.4-2.9-2.9v-5.8h-1.2v-1.6h1.2V23h2.1v3.2h2v1.6h-2v5.7c0 .8.4 1.2 1.2 1.2h.9v1.8H150zM160.6 35.5c-.7.7-1.7 1.2-3.2 1.2-1.4 0-2.5-.5-3.1-1.2-1-1-1.2-2.4-1.2-4.2 0-1.8.2-3.1 1.2-4.1.7-.7 1.7-1.2 3.1-1.2 1.4 0 2.5.5 3.2 1.2 1 1 1.2 2.4 1.2 4.1 0 1.8-.2 3.1-1.2 4.2zm-1.6-7.1c-.4-.4-.9-.6-1.6-.6-.6 0-1.1.2-1.5.6-.6.6-.7 1.7-.7 2.9 0 1.1.1 2.2.7 2.9.4.4.9.6 1.5.6s1.2-.2 1.6-.6c.6-.6.7-1.7.7-2.9 0-1.1-.1-2.2-.7-2.9zM170.2 28.5c-.5-.5-.9-.7-1.6-.7-1.1 0-2.1.9-2.1 2.4v6.4h-2.1V26.1h2.1v1.1c.5-.7 1.6-1.3 2.8-1.3 1 0 1.8.3 2.5 1l-1.6 1.6z"/><path class="st1" d="M176.5 38.7c-.2.6-.5 1-.8 1.3-.6.6-1.4.8-2.2.8h-.9v-1.9h.5c.9 0 1.2-.3 1.5-1.1l.6-1.6-3.7-10h2.2l2.5 7.4 2.5-7.4h2.3l-4.5 12.5zM128.8 57.8v-9.9l-3.4 7.2h-1.7l-3.5-7.2v9.9H118V43h2.2l4.3 9.2 4.2-9.2h2.2v14.8h-2.1zM140.7 57.8v-1.1c-.7.8-1.7 1.2-2.8 1.2-1.1 0-2-.4-2.6-1-.8-.8-1.1-1.8-1.1-3v-6.7h2.1v6.4c0 1.6.9 2.4 2.1 2.4 1.2 0 2.2-.7 2.2-2.4v-6.4h2.1v10.5h-2zM149.3 57.9c-1.7 0-3.2-.3-4.4-1.5l1.4-1.4c.9.9 2 1.1 3 1.1 1.3 0 2.3-.5 2.3-1.5 0-.7-.4-1.2-1.4-1.2l-1.7-.1c-2-.2-3.1-1.1-3.1-2.9 0-2.1 1.8-3.2 4-3.2 1.6 0 2.9.3 3.9 1.2l-1.3 1.4c-.7-.6-1.6-.8-2.6-.8-1.3 0-1.9.6-1.9 1.4 0 .6.3 1.1 1.5 1.2l1.7.1c2 .2 3.1 1.1 3.1 3-.1 2.1-2 3.2-4.5 3.2zM157.5 53.2c0 1.8 1 3 2.7 3 1.2 0 1.8-.3 2.6-1.1l1.4 1.3c-1.1 1.1-2.1 1.6-4 1.6-2.6 0-4.7-1.4-4.7-5.4 0-3.4 1.8-5.4 4.5-5.4 2.8 0 4.5 2.1 4.5 5.1v.9h-7zm4.4-2.9c-.3-.8-1.1-1.3-2.1-1.3s-1.8.5-2.1 1.3c-.2.5-.2.8-.3 1.4h4.7c.1-.7 0-1-.2-1.4zM173.2 57.8v-1.1c-.7.8-1.7 1.2-2.8 1.2-1.1 0-2-.4-2.6-1-.8-.8-1.1-1.8-1.1-3v-6.7h2.1v6.4c0 1.6.9 2.4 2.1 2.4 1.2 0 2.2-.7 2.2-2.4v-6.4h2.1v10.5h-2zM191.2 57.8v-6.4c0-1.6-.9-2.4-2.1-2.4-1.1 0-2.2.7-2.2 2.2v6.5h-2.1v-6.4c0-1.6-.9-2.4-2.1-2.4-1.2 0-2.2.7-2.2 2.4v6.4h-2.1V47.3h2.1v1.1c.7-.8 1.7-1.2 2.8-1.2 1.3 0 2.3.5 3 1.5.9-1 1.9-1.5 3.3-1.5 1.1 0 2 .4 2.7 1 .8.8 1.1 1.8 1.1 3v6.7h-2.2z"/></g></svg>