<svg id="ARTWORK" xmlns="http://www.w3.org/2000/svg" width="320" height="48.47" viewBox="0 0 3210.44 486.28" class="logo computing"><path d="M634.33,339.85V610.46a23.87,23.87,0,0,1-23.87,23.88H320a4,4,0,0,1-4-4V548.63a4,4,0,0,1,4-4H538.68a6,6,0,0,0,6-6V411.62a6,6,0,0,0-6-6H320a4,4,0,0,1-4-4V320a4,4,0,0,1,4-4H610.46A23.87,23.87,0,0,1,634.33,339.85ZM520,516V434.29a4,4,0,0,0-4-4H297.28a6,6,0,0,1-6-6V297.28a6,6,0,0,1,6-6H516a4,4,0,0,0,4-4V205.61a4,4,0,0,0-4-4H225.5a23.87,23.87,0,0,0-23.87,23.87V496.12A23.87,23.87,0,0,0,225.5,520H516A4,4,0,0,0,520,516ZM768.85,302c0-2.06,0-5.36-.14-9.87s-.23-9-.42-13.53q-.28-7.9-.28-17.21h.56q2,8.74,3.67,16.08,1.41,6.48,3.1,12.69c1.13,4.14,2,7.14,2.54,9l28.76,104.06h41.17l29.05-104.34q.84-2.82,2.4-8.88t3-12.55q1.69-7.33,3.95-16.08h.56q-.29,9.31-.56,17.21-.28,6.76-.29,13.39V403.26h45.69V201.63H863.89L839.07,289.9c-.94,3.19-2.07,7.38-3.38,12.54s-2.54,10.21-3.67,15.09q-2.25,8.75-4.23,18.33h-.56q-2.26-9.58-4.51-18.33-2-7.32-3.81-15.09c-1.23-5.16-2.31-9.35-3.24-12.54l-24.54-88.27H724V403.26h44.83ZM1004.3,201.63H954.38V403.26h49.92Zm183.38,0H1019.89v42.3h58.65V403.26h49.92V243.93h59.22Zm168.7,162.15a34.26,34.26,0,0,1-10.29,3.67,62.66,62.66,0,0,1-12,1.12q-18.06,0-27.92-6.76t-11.56-22h-50.2q.27,16.63,6.91,29.47a60.86,60.86,0,0,0,18.33,21.43q11.7,8.61,28.2,13a142.23,142.23,0,0,0,36.52,4.37,116.41,116.41,0,0,0,32.57-4.37A80.89,80.89,0,0,0,1393.18,391a59.49,59.49,0,0,0,17.49-20.58q6.35-12.27,6.34-28.06,0-16.08-5.92-26.79a53.19,53.19,0,0,0-15.79-17.77,84.07,84.07,0,0,0-22.7-11.28q-12.84-4.23-26.93-7.61-11.28-2.53-19.88-4.65a84.94,84.94,0,0,1-14.24-4.66,23.69,23.69,0,0,1-8.61-6.06,13.35,13.35,0,0,1-3-8.88q0-8.46,7.9-13.68t21.15-5.22q14.1,0,22.56,6.21t9.87,18h48.79q-.86-15.78-7.19-27.49a57,57,0,0,0-16.93-19.32,75.48,75.48,0,0,0-24.81-11.42,118.1,118.1,0,0,0-30.6-3.81,130.07,130.07,0,0,0-31.58,3.67,74.54,74.54,0,0,0-25.38,11.28,54.86,54.86,0,0,0-16.92,19.32q-6.21,11.7-6.21,27.77,0,15.81,6.35,26.23a54.32,54.32,0,0,0,16.5,17.2,87.37,87.37,0,0,0,23,10.72q12.82,3.94,26.08,7.05,10.44,2.54,18.62,4.65a70.68,70.68,0,0,1,13.81,4.94,23.74,23.74,0,0,1,8.6,6.76,16,16,0,0,1,3,9.87,16.75,16.75,0,0,1-2.82,9.73A21.7,21.7,0,0,1,1356.38,363.78Zm90.95,22.14A70.28,70.28,0,0,0,1471.44,402a88.53,88.53,0,0,0,59.36,1.27,63.61,63.61,0,0,0,21.43-12.55,57.09,57.09,0,0,0,13.82-18.89,62.62,62.62,0,0,0,5.5-23.27h-44q-3.12,24.82-25.1,24.82-15,0-22.28-11.28t-7.33-30.74q0-19.74,7.33-31.16t22.28-11.42q9.87,0,15.65,5.78t8,15.65h44.28a67.38,67.38,0,0,0-7.05-22.28,57.9,57.9,0,0,0-14.1-17.48A64,64,0,0,0,1528.54,259a82,82,0,0,0-26.65-4.09,80.8,80.8,0,0,0-31.16,5.78,69.3,69.3,0,0,0-23.83,16.07A71.63,71.63,0,0,0,1431.68,301a83.69,83.69,0,0,0-5.36,30.31,82,82,0,0,0,5.5,30.32A72.29,72.29,0,0,0,1447.33,385.92ZM1708.6,270a45.88,45.88,0,0,0-15.8-11.28,52.16,52.16,0,0,0-21.15-4.08q-15.23,0-25.09,5.78a61,61,0,0,0-17.77,16.21h-.85v-75h-46V403.26h46V323.45q0-13.53,6.91-22t18.47-8.46q11.28,0,16.92,7.05t5.64,18.61v84.6h46V309.35a68.92,68.92,0,0,0-3.38-22.13A48.77,48.77,0,0,0,1708.6,270ZM1811,403.26l17.2-65.42q1.13-4.23,2.4-8.75c.84-3,1.55-5.82,2.11-8.46.75-3,1.41-5.92,2-8.74h.56c.57,2.82,1.22,5.74,2,8.74q.85,4,1.84,8.46a83.23,83.23,0,0,0,2.4,8.75l16.92,65.42h43.14l44.28-144.38h-45.41l-16.07,59.78q-1.41,4.51-2.4,9.31c-.66,3.2-1.36,6.2-2.11,9-.76,3.38-1.51,6.68-2.26,9.87H1877c-.76-3.19-1.51-6.49-2.26-9.87-.75-2.82-1.51-5.92-2.26-9.31s-1.5-6.67-2.25-9.87l-15.79-58.93h-38.92l-15.23,58.93q-1.41,4.8-2.53,9.73c-.76,3.29-1.41,6.35-2,9.17l-2,9.87h-.57q-.84-4.51-2-9.59c-.56-2.82-1.27-5.82-2.12-9s-1.64-6.3-2.39-9.31l-15.79-59.78H1724.1l44.28,144.38ZM2034,387.19a47.81,47.81,0,0,1-16.5,14.38q-10,5.35-26.37,5.36a67.65,67.65,0,0,1-19.88-2.82,42.55,42.55,0,0,1-15.65-8.46,39.43,39.43,0,0,1-10.15-13.82,45.69,45.69,0,0,1-3.66-18.9q0-11.83,4.37-19.88a37.59,37.59,0,0,1,12-13.25,59.39,59.39,0,0,1,17.63-8,144.53,144.53,0,0,1,21.29-4.23q20.3-2.53,28.48-5.64t8.18-10.43a14.48,14.48,0,0,0-4.66-11.28Q2024.43,286,2014,286q-11,0-16.64,4.79t-6.77,13.82h-42.3a47.88,47.88,0,0,1,4.51-19.18,46.09,46.09,0,0,1,12.27-15.79,59.56,59.56,0,0,1,20.16-10.71q12.12-3.94,28.48-3.95t27.64,3a54.72,54.72,0,0,1,19.18,8.88,41.07,41.07,0,0,1,13.81,17.2,59.9,59.9,0,0,1,4.52,24V380.7a73.44,73.44,0,0,0,1,13.68q1,4.94,4.09,6.91v2h-44.55a19,19,0,0,1-2.82-6.34,83.55,83.55,0,0,1-2-9.73Zm.84-35.54v-17.2a66.59,66.59,0,0,1-10.57,4.09q-6.07,1.84-13.11,3.53-13.26,3.1-19.18,7.19t-5.92,12.26q0,8.75,5.64,12.41t14.1,3.67q13,0,21-7.05T2034.86,351.65Zm108.85-13.25q0-23.68,12.55-34t33.7-7.19h1.13V257.75q-2.53-1.12-9-1.13-13.24,0-22.56,5.92t-16.92,18.9h-.84V258.88h-44V403.26h46Zm184.71,29.33h-52.17q-2.53,0-6.2.14c-2.45.1-4.8.14-7.05.14h-8.18v-.85c1.88-2.06,3.76-4,5.64-5.92l9-9,54.71-59.5V259.16H2205.75v35h55.56q3.38,0,7.33-.29v.85q-2.54,2.54-4.8,5.08a58.61,58.61,0,0,1-4.09,4.23q-2.11,2-3.52,3.38L2199,369.14v34.12h129.44ZM2410.76,293q10.44,0,15.37,6.34t4.94,18.19v85.73h46V322.33q0-13,5.92-21.15t16.92-8.18q10.44,0,15.37,6.34t4.94,18.19v85.73h46V309.35a75.83,75.83,0,0,0-3.1-22.27,48.66,48.66,0,0,0-9.16-17.35,40.55,40.55,0,0,0-15.37-11.14,54.54,54.54,0,0,0-21.43-3.94,53.55,53.55,0,0,0-25.52,6.06q-11.43,6.06-19.89,19.32h-.56a44.8,44.8,0,0,0-15.93-18.62q-10.3-6.77-24.68-6.76-15.8,0-26.36,6.76a54.16,54.16,0,0,0-17.35,18H2386V258.88h-44V403.26h46V322.33q0-13,6.06-21.15T2410.76,293Zm242.38,108.57q-10,5.35-26.37,5.36a67.6,67.6,0,0,1-19.88-2.82,42.55,42.55,0,0,1-15.65-8.46,39.3,39.3,0,0,1-10.15-13.82,45.69,45.69,0,0,1-3.67-18.9q0-11.83,4.37-19.88a37.62,37.62,0,0,1,12-13.25,59.33,59.33,0,0,1,17.62-8,144.53,144.53,0,0,1,21.29-4.23q20.31-2.53,28.49-5.64t8.17-10.43a14.51,14.51,0,0,0-4.65-11.28q-4.65-4.23-15.09-4.23-11,0-16.63,4.79t-6.77,13.82h-42.3a47.71,47.71,0,0,1,4.51-19.18,46.09,46.09,0,0,1,12.27-15.79,59.37,59.37,0,0,1,20.16-10.71q12.12-3.94,28.48-3.95t27.64,3a54.67,54.67,0,0,1,19.17,8.88A41.09,41.09,0,0,1,2710,284a59.9,59.9,0,0,1,4.51,24V380.7a73.3,73.3,0,0,0,1,13.68q1,4.94,4.09,6.91v2H2675a19,19,0,0,1-2.82-6.34,83.72,83.72,0,0,1-2-9.73h-.56A47.81,47.81,0,0,1,2653.14,401.57Zm-11.71-24q13,0,21-7.05t8-18.9v-17.2a66.59,66.59,0,0,1-10.57,4.09q-6.07,1.84-13.12,3.53-13.26,3.1-19.17,7.19t-5.93,12.26q0,8.75,5.64,12.41T2641.43,377.6Zm180.2-77.55q5.64,7.05,5.64,18.61v84.6h46V309.35a68.64,68.64,0,0,0-3.38-22.13A48.62,48.62,0,0,0,2860,270a45.94,45.94,0,0,0-15.79-11.28,52.22,52.22,0,0,0-21.15-4.08q-15.23,0-25.8,6.06t-18.76,17.91h-.84V258.88h-44.28V403.26h46V323.45q0-13.53,6.91-22t18.47-8.46Q2816,293,2821.63,300.05ZM839,588.51Q828.66,598,811.74,598a41.71,41.71,0,0,1-20.16-4.79,46.62,46.62,0,0,1-15.23-13.26,61.9,61.9,0,0,1-9.73-20.16,91.8,91.8,0,0,1-3.38-25.52,104.09,104.09,0,0,1,3-25.52,62.74,62.74,0,0,1,8.88-20.3A41.66,41.66,0,0,1,790,475q9-4.78,21.43-4.79,16.08,0,26.09,9.16a37.15,37.15,0,0,1,12,22.7h49.92a90,90,0,0,0-9.45-31.3,70.3,70.3,0,0,0-20.73-24.25,85.39,85.39,0,0,0-25.24-13,102.46,102.46,0,0,0-32.29-4.8q-22.56,0-40.89,8a92.41,92.41,0,0,0-31.3,22.14,98.71,98.71,0,0,0-20,33.41,121.27,121.27,0,0,0-7,41.88A118.08,118.08,0,0,0,719.67,576,98,98,0,0,0,740,609.09,93.14,93.14,0,0,0,771.42,631q18.33,7.89,40.61,7.89,21.42,0,37.08-5.78A79.11,79.11,0,0,0,876.6,616a77.57,77.57,0,0,0,16.78-23.12,79,79,0,0,0,7.48-28.49H850.94A37.44,37.44,0,0,1,839,588.51Zm221-56.4a86.3,86.3,0,0,1,0,60.63A72.6,72.6,0,0,1,1044.41,617a70.15,70.15,0,0,1-24.26,16.07,90,90,0,0,1-63.45,0,70.45,70.45,0,0,1-40-40.32,86.3,86.3,0,0,1,0-60.63,70.43,70.43,0,0,1,40-40.33,90,90,0,0,1,63.45,0,70.29,70.29,0,0,1,24.26,16.07A72.65,72.65,0,0,1,1059.92,532.11Zm-41,30.31q0-19.74-7.76-31.87t-23-12.12q-15.23,0-22.84,12.12t-7.62,31.87q0,19.74,7.62,31.73t22.84,12q15.23,0,23-12T1018.89,562.42Zm59.65,71.91h46.53V432.7h-46.53Zm69.35,0h46.52V432.7h-46.52ZM1355.44,574H1251.66q2.25,14.67,10.15,23.13t22.28,8.46q9,0,15-3.81a24.3,24.3,0,0,0,9-10.58h44.84a53.56,53.56,0,0,1-8.46,18.76,60.4,60.4,0,0,1-15.79,15.37,68.5,68.5,0,0,1-20.17,9.87,92.94,92.94,0,0,1-57.1-2.4,68.28,68.28,0,0,1-24.25-16.07,71.3,71.3,0,0,1-15.23-24.4,84.84,84.84,0,0,1-5.36-30.45,83,83,0,0,1,5.36-30,71.71,71.71,0,0,1,15.23-24.25,70.16,70.16,0,0,1,23.4-16.07,82.26,82.26,0,0,1,58-1,69.3,69.3,0,0,1,21.58,13.25,72,72,0,0,1,19.31,30Q1355.72,552,1355.44,574Zm-46.53-27.35q-1.42-13-8.75-20.59t-18.61-7.61q-13.26,0-20.3,7.61t-9.31,20.59ZM1468.26,490h44V620.23q0,16.37-5.21,28.2a57.43,57.43,0,0,1-14,19.74,58.23,58.23,0,0,1-23.27,12.27,110.94,110.94,0,0,1-29.75,3.8q-29.89,0-48.5-11.84t-22-34.69h44.56a20.53,20.53,0,0,0,7.89,9.87q5.92,4.23,17.49,4.23,14.65,0,21.15-7.19t6.48-20.44V609.8H1466a54.69,54.69,0,0,1-15.08,12q-8.61,4.65-21.86,4.65a62.37,62.37,0,0,1-23.4-4.51,59.82,59.82,0,0,1-20-13.11,62.6,62.6,0,0,1-14-21.43q-5.23-12.84-5.22-29.47a92.14,92.14,0,0,1,4.37-29A68.46,68.46,0,0,1,1383.24,506a57.12,57.12,0,0,1,19.17-14.95,56.36,56.36,0,0,1,24.68-5.35q14.39,0,24.25,5.35a48.31,48.31,0,0,1,16.36,14.39h.56Zm.85,66.27a50.66,50.66,0,0,0-1.84-13.82,33.27,33.27,0,0,0-5.64-11.42,27.41,27.41,0,0,0-9.3-7.76,27.13,27.13,0,0,0-12.55-2.82q-13,0-20.73,9.73t-7.75,26.37q0,16.35,7.75,26.08t20.73,9.73q14.94,0,22.14-10.43T1469.11,556.22ZM1673.27,574H1569.5q2.25,14.67,10.15,23.13t22.28,8.46q9,0,14.94-3.81a24.25,24.25,0,0,0,9-10.58h44.83a53.2,53.2,0,0,1-8.46,18.76,60.09,60.09,0,0,1-15.79,15.37,68.56,68.56,0,0,1-20.16,9.87,93,93,0,0,1-57.11-2.4A68.46,68.46,0,0,1,1545,616.71a71.46,71.46,0,0,1-15.23-24.4,85.06,85.06,0,0,1-5.35-30.45,83.17,83.17,0,0,1,5.35-30A71.87,71.87,0,0,1,1545,507.57a70.3,70.3,0,0,1,23.41-16.07,82.26,82.26,0,0,1,58-1,69.14,69.14,0,0,1,21.57,13.25,71.89,71.89,0,0,1,19.32,30Q1673.56,552,1673.27,574Zm-46.53-27.35q-1.41-13-8.74-20.59t-18.61-7.61q-13.26,0-20.31,7.61t-9.3,20.59Zm248-14.52a86.3,86.3,0,0,1,0,60.63A72.6,72.6,0,0,1,1859.25,617,70.2,70.2,0,0,1,1835,633.06a90,90,0,0,1-63.45,0,70.51,70.51,0,0,1-40-40.32,86.44,86.44,0,0,1,0-60.63,70.49,70.49,0,0,1,40-40.33,90,90,0,0,1,63.45,0,70.34,70.34,0,0,1,24.25,16.07A72.65,72.65,0,0,1,1874.76,532.11Zm-41,30.31q0-19.74-7.75-31.87t-23-12.12q-15.23,0-22.84,12.12t-7.61,31.87q0,19.74,7.61,31.73t22.84,12q15.23,0,23-12T1833.73,562.42Zm107.16-128.17q-16.65,2.69-26,11.7-11.84,11.85-11.84,33.56V490h-18.61v29.32h18.61V634.33h46V519.27h27.07V490h-27.07V482.9a20.5,20.5,0,0,1,1.83-9.45,11.67,11.67,0,0,1,5.22-5.22,23.1,23.1,0,0,1,8.46-2.11,92.28,92.28,0,0,1,11.56-.14V433.55A133.06,133.06,0,0,0,1940.89,434.25Zm214.74,154.26q-10.29,9.45-27.21,9.44a41.71,41.71,0,0,1-20.16-4.79A46.52,46.52,0,0,1,2093,579.9a61.7,61.7,0,0,1-9.73-20.16,91.43,91.43,0,0,1-3.39-25.52,103.59,103.59,0,0,1,3-25.52,62.31,62.31,0,0,1,8.88-20.3A41.63,41.63,0,0,1,2106.7,475q9-4.78,21.44-4.79,16.07,0,26.08,9.16a37.22,37.22,0,0,1,12,22.7h49.91a90,90,0,0,0-9.45-31.3A70.37,70.37,0,0,0,2186,446.52a85.51,85.51,0,0,0-25.24-13,102.54,102.54,0,0,0-32.29-4.8q-22.56,0-40.89,8a92.31,92.31,0,0,0-31.3,22.14,98.73,98.73,0,0,0-20,33.41,121.27,121.27,0,0,0-7,41.88,117.86,117.86,0,0,0,7.2,41.74,98,98,0,0,0,20.3,33.13A93.14,93.14,0,0,0,2088.09,631q18.33,7.89,40.61,7.89,21.42,0,37.08-5.78a79.15,79.15,0,0,0,27.5-17.06,77.75,77.75,0,0,0,16.78-23.12,78.82,78.82,0,0,0,7.47-28.49h-49.91A37.45,37.45,0,0,1,2155.63,588.51Zm220-56.4a86.3,86.3,0,0,1,0,60.63A72.6,72.6,0,0,1,2360.08,617a70.2,70.2,0,0,1-24.25,16.07,90,90,0,0,1-63.45,0,70.43,70.43,0,0,1-40.05-40.32,86.3,86.3,0,0,1,0-60.63,70.41,70.41,0,0,1,40.05-40.33,90,90,0,0,1,63.45,0,70.34,70.34,0,0,1,24.25,16.07A72.65,72.65,0,0,1,2375.59,532.11Zm-41,30.31q0-19.74-7.76-31.87t-23-12.12q-15.22,0-22.84,12.12t-7.62,31.87q0,19.74,7.62,31.73t22.84,12q15.22,0,23-12T2334.56,562.42Zm270.86-61.62a40.55,40.55,0,0,0-15.37-11.14,54.51,54.51,0,0,0-21.43-3.94,53.55,53.55,0,0,0-25.52,6.06q-11.43,6.06-19.88,19.32h-.57a44.8,44.8,0,0,0-15.93-18.62q-10.3-6.76-24.68-6.76-15.79,0-26.36,6.76a54.26,54.26,0,0,0-17.35,18h-.84V490h-44V634.33h46V553.4q0-13,6.06-21.15t16.78-8.18q10.44,0,15.37,6.34t4.94,18.19v85.73h46V553.4q0-13,5.93-21.15t16.92-8.18q10.42,0,15.36,6.34t4.94,18.19v85.73h46V540.42a75.82,75.82,0,0,0-3.11-22.27A48.66,48.66,0,0,0,2605.42,500.8Zm175.82,31a112.31,112.31,0,0,1-.28,62,71.2,71.2,0,0,1-12.83,24.26,56.43,56.43,0,0,1-19.88,15.36,60.36,60.36,0,0,1-25.66,5.36q-14.12,0-24.12-5.22a48.9,48.9,0,0,1-16.77-14.24h-.57V682h-46V490h44v17.48h.84a55.94,55.94,0,0,1,18.05-15.79q10.71-5.92,25.66-5.92a56.42,56.42,0,0,1,25.81,5.78A57.14,57.14,0,0,1,2769,507.57,73.77,73.77,0,0,1,2781.24,531.82Zm-42.3,32q0-18.62-7.05-29.89t-22-11.28a27.06,27.06,0,0,0-13.25,3.1,27.62,27.62,0,0,0-9.45,8.6,38.92,38.92,0,0,0-5.64,13.11,70,70,0,0,0-1.83,16.36q0,17.76,8,28.62t23,10.86q13.26,0,20.73-10.43T2738.94,563.83Zm150.59,6.77q0,13-6.77,21t-18.61,8q-11,0-16.36-6.34t-5.36-18.19V490h-45.68V584.7q0,24.25,12.83,39t37.93,14.81q15.22,0,25.24-5.64a57.46,57.46,0,0,0,17.91-16.36h.84v17.77h44V490h-46Zm121.26-126.34H2966V490h-19.18v28.76H2966v77.55q0,11.57,3.38,19.32a29.17,29.17,0,0,0,9.59,12.26,38.35,38.35,0,0,0,14.52,6.35,86.24,86.24,0,0,0,18.48,1.83,148.2,148.2,0,0,0,15.65-.7,67.69,67.69,0,0,0,9.44-1.55V600.21c-.94,0-2.35,0-4.23.14s-3.85.14-5.92.14q-7.34,0-11.7-2.82t-4.37-11.28V518.71H3037V490h-26.22Zm39.48,25.66h46V432.7h-46Zm0,164.41h46V490h-46Zm191.19-133.24a45.74,45.74,0,0,0-15.79-11.29,52.16,52.16,0,0,0-21.15-4.08q-15.22,0-25.8,6.06T3160,509.69h-.84V490h-44.28V634.33h46V554.52q0-13.53,6.91-22t18.47-8.46q11.28,0,16.92,7t5.64,18.61v84.6h46V540.42a68.64,68.64,0,0,0-3.39-22.13A48.49,48.49,0,0,0,3241.46,501.09ZM3412.07,490V620.23q0,16.37-5.22,28.2a57.3,57.3,0,0,1-14,19.74,58.18,58.18,0,0,1-23.26,12.27,111,111,0,0,1-29.75,3.8q-29.9,0-48.51-11.84t-22-34.69h44.55a20.61,20.61,0,0,0,7.9,9.87q5.93,4.23,17.48,4.23,14.67,0,21.15-7.19t6.49-20.44V609.8h-1.13a54.73,54.73,0,0,1-15.09,12q-8.59,4.65-21.85,4.65a62.42,62.42,0,0,1-23.41-4.51,59.92,59.92,0,0,1-20-13.11,62.75,62.75,0,0,1-14-21.43q-5.22-12.84-5.22-29.47a92.14,92.14,0,0,1,4.38-29,68.62,68.62,0,0,1,12.4-22.84,57.16,57.16,0,0,1,19.18-14.95,56.32,56.32,0,0,1,24.67-5.35q14.38,0,24.26,5.35a48.18,48.18,0,0,1,16.35,14.39h.57V490Zm-43.15,66.27a50.66,50.66,0,0,0-1.83-13.82,33.27,33.27,0,0,0-5.64-11.42,27.44,27.44,0,0,0-9.31-7.76,27.09,27.09,0,0,0-12.54-2.82q-13,0-20.73,9.73t-7.76,26.37q0,16.35,7.76,26.08t20.73,9.73q14.94,0,22.13-10.43T3368.92,556.22Z" transform="translate(-201.63 -197.96)"></path></svg>
