<?xml version="1.0" encoding="iso-8859-1"?>
<!-- Generator: Adobe Illustrator 21.1.0, SVG Export Plug-In . SVG Version: 6.00 Build 0)  -->
<svg version="1.1" id="Layer_1" xmlns="http://www.w3.org/2000/svg" xmlns:xlink="http://www.w3.org/1999/xlink" x="0px" y="0px"
	 viewBox="0 0 286.197 54" style="enable-background:new 0 0 286.197 54;" xml:space="preserve">
<rect x="52" y="8.007" style="fill:#EDEDED;" width="20" height="8"/>
<rect x="13" y="8.007" style="fill:#EDEDED;" width="8" height="26"/>
<rect x="26" y="8.007" style="fill:#EDEDED;" width="8" height="38"/>
<rect y="8.007" style="fill:#EDEDED;" width="8" height="38"/>
<rect x="52" y="21.007" style="fill:#EDEDED;" width="8" height="25"/>
<rect x="39" y="8.007" style="fill:#EDEDED;" width="8" height="8"/>
<rect x="39" y="21.007" style="fill:#9A9A9A;" width="8" height="25"/>
<rect x="88" style="fill:#EDEDED;" width="1" height="54"/>
<g>
	<path style="fill:#EDEDED;" d="M104.689,27.13c0-6.643,1.827-11.284,8.673-11.284s8.673,4.641,8.673,11.284
		s-1.828,11.284-8.673,11.284S104.689,33.772,104.689,27.13z M109.388,27.13c0,5.076,1.103,7.077,3.974,7.077
		s3.974-2.001,3.974-7.077s-1.103-7.078-3.974-7.078S109.388,22.054,109.388,27.13z"/>
	<path style="fill:#EDEDED;" d="M127.31,23.504l0.783,1.16c1.016-0.87,2.379-1.566,4.699-1.566c3.771,0,5.627,2.321,5.627,7.658
		c0,5.337-1.855,7.658-5.627,7.658c-1.596,0-2.756-0.406-3.626-0.929v7.774h-4.642V23.504H127.31z M129.166,34.062
		c0,0,0.899,0.609,2.06,0.609c2.146,0,2.611-1.451,2.611-3.916c0-2.494-0.465-3.858-2.611-3.858c-1.16,0-2.06,0.609-2.06,0.609
		V34.062z"/>
	<path style="fill:#EDEDED;" d="M144.448,32.293c-0.115,1.885,0.871,2.437,3.133,2.437c2.176,0,3.801-0.435,4.845-0.957v3.626
		c-1.683,0.695-3.713,1.016-5.453,1.016c-4.786,0-7.106-2.438-7.106-7.658c0-5.222,2.291-7.658,6.787-7.658
		c6.207,0,6.643,4.641,6.266,9.195H144.448z M144.448,29.45h4.119c0.262-1.595-0.086-2.872-1.855-2.872
		C145.146,26.579,144.448,27.623,144.448,29.45z"/>
	<path style="fill:#EDEDED;" d="M157.991,23.504l0.58,1.044c1.625-0.986,3.452-1.451,5.047-1.451c3.945,0,5.076,2.088,5.076,4.873
		v10.037h-4.641v-9.341c0-1.073-0.377-1.798-1.625-1.798c-1.131,0-2.146,0.464-2.581,0.754v10.385h-4.642V23.504H157.991z"/>
	<path style="fill:#EDEDED;" d="M181.626,33.772h8.789v4.235h-13.43V16.252h4.641V33.772z"/>
	<path style="fill:#EDEDED;" d="M196.038,32.293c-0.115,1.885,0.871,2.437,3.133,2.437c2.176,0,3.801-0.435,4.845-0.957v3.626
		c-1.683,0.695-3.713,1.016-5.453,1.016c-4.786,0-7.106-2.438-7.106-7.658c0-5.222,2.291-7.658,6.787-7.658
		c6.207,0,6.643,4.641,6.266,9.195H196.038z M196.038,29.45h4.119c0.262-1.595-0.086-2.872-1.855-2.872
		C196.735,26.579,196.038,27.623,196.038,29.45z"/>
	<path style="fill:#EDEDED;" d="M214.28,27.855c0-0.667-0.464-1.015-1.711-1.015c-1.828,0-3.945,0.551-5.222,1.102v-3.887
		c0.986-0.436,3.161-0.958,5.222-0.958c5.221,0,6.207,2.233,6.207,5.482v9.428h-2.785l-0.638-1.103
		c-1.044,0.929-2.523,1.509-4.265,1.509c-3.684,0-4.931-2.438-4.931-4.613c0-3.916,2.872-4.496,5.482-4.757l2.64-0.261V27.855z
		 M212.337,31.568c-1.305,0.174-1.828,0.812-1.828,1.943c0,1.072,0.697,1.711,1.684,1.711c0.841,0,1.624-0.232,2.088-0.696v-3.22
		L212.337,31.568z"/>
	<path style="fill:#EDEDED;" d="M230.375,27.042c-0.231-0.058-0.812-0.116-1.421-0.116c-1.422,0-2.697,0.493-3.075,0.841v10.24
		h-4.642V23.504h2.785l0.58,1.044c0.726-0.696,2.292-1.451,4.467-1.451c0.58,0,1.103,0.116,1.306,0.203V27.042z"/>
	<path style="fill:#EDEDED;" d="M234.753,23.504l0.58,1.044c1.624-0.986,3.451-1.451,5.047-1.451c3.945,0,5.076,2.088,5.076,4.873
		v10.037h-4.641v-9.341c0-1.073-0.377-1.798-1.625-1.798c-1.131,0-2.146,0.464-2.582,0.754v10.385h-4.641V23.504H234.753z"/>
	<path style="fill:#EDEDED;" d="M250.384,16.542c1.537,0,2.755,1.218,2.755,2.756c0,1.566-1.218,2.756-2.755,2.756
		c-1.566,0-2.756-1.189-2.756-2.756C247.628,17.76,248.817,16.542,250.384,16.542z M253.864,38.123c0,0-0.609,0.116-1.334,0.116
		c-2.495,0-4.468-1.276-4.468-4.09V23.504h4.612v10.008c0,0.551,0.262,0.869,1.189,0.869V38.123z"/>
	<path style="fill:#EDEDED;" d="M258.677,23.504l0.58,1.044c1.625-0.986,3.452-1.451,5.048-1.451c3.944,0,5.076,2.088,5.076,4.873
		v10.037h-4.642v-9.341c0-1.073-0.377-1.798-1.625-1.798c-1.131,0-2.146,0.464-2.581,0.754v10.385h-4.642V23.504H258.677z"/>
	<path style="fill:#EDEDED;" d="M277.788,23.098c1.334,0,2.35,0.058,3.394,0.406h4.729v3.104l-1.741,0.464
		c0.088,0.493,0.146,1.043,0.146,1.595c0,3.655-2.03,5.569-6.526,5.569c-0.522,0-1.016,0-1.479-0.059
		c-0.087,0.117-0.203,0.291-0.203,0.552c0,0.29,0.174,0.464,0.58,0.522l5.599,0.725c3.046,0.406,3.916,1.914,3.916,4.264
		c0,3.916-4.496,5.425-8.935,5.425c-3.654,0-6.875-1.132-6.875-3.944c0-1.973,1.538-3.191,3.018-3.51
		c-0.899-0.465-1.335-1.363-1.335-2.35c0-0.812,0.609-1.828,1.538-2.495c-1.596-0.929-2.35-2.466-2.35-4.699
		C271.262,25.012,273.292,23.098,277.788,23.098z M275.786,38.994c-0.608,0.231-1.102,0.841-1.102,1.479
		c0,1.045,0.783,1.711,3.074,1.711c2.205,0,3.858-0.754,3.858-1.711c0-0.464-0.232-0.754-0.812-0.841L275.786,38.994z
		 M277.788,30.813c1.421,0,2.117-0.726,2.117-2.146c0-1.421-0.696-2.146-2.117-2.146c-1.422,0-2.118,0.725-2.118,2.146
		C275.67,30.088,276.366,30.813,277.788,30.813z"/>
</g>
</svg>
